<svg aria-hidden="true" style="position: absolute; width: 0; height: 0; overflow: hidden;" version="1.1" xmlns="http://www.w3.org/2000/svg" xmlns:xlink="http://www.w3.org/1999/xlink">
<defs>
<symbol id="icon-tv" viewBox="0 0 32 32">
<path d="M0 8c0 0 0-4 4-4h24c0 0 4 0 4 4v12c0 0 0 4-4 4h-8c0 1.333 0.167 2.333 0.5 3h1.5c0.265 0 0.52 0.105 0.707 0.293s0.293 0.442 0.293 0.707c0 0.265-0.105 0.52-0.293 0.707s-0.442 0.293-0.707 0.293h-12c-0.265 0-0.52-0.105-0.707-0.293s-0.293-0.442-0.293-0.707c0-0.265 0.105-0.52 0.293-0.707s0.442-0.293 0.707-0.293h1.5c0.333-0.667 0.5-1.667 0.5-3h-8c0 0-4 0-4-4v-12zM2.796 6.29c-0.22 0.153-0.395 0.361-0.508 0.604-0.168 0.353-0.266 0.735-0.288 1.126v11.98c0 0.65 0.156 1.004 0.29 1.204 0.14 0.208 0.341 0.377 0.604 0.508 0.338 0.162 0.703 0.259 1.076 0.286l0.050 0.002h23.98c0.65 0 1.004-0.156 1.204-0.29 0.22-0.153 0.395-0.361 0.508-0.604 0.162-0.338 0.259-0.703 0.286-1.076l0.002-0.050v-11.98c0-0.65-0.156-1.004-0.29-1.204-0.153-0.22-0.361-0.395-0.604-0.508-0.353-0.168-0.736-0.266-1.126-0.288h-23.98c-0.65 0-1.004 0.156-1.204 0.29z"></path>
</symbol>
<symbol id="icon-hugeicons_gas-stove" viewBox="0 0 32 32">
<path d="M8 25.333h5.333M24 25.345v-0.012M2.667 8c0-4.413 0.92-5.333 5.333-5.333h16c4.413 0 5.333 0.92 5.333 5.333v16c0 4.413-0.92 5.333-5.333 5.333h-16c-4.413 0-5.333-0.92-5.333-5.333v-16z"></path>
<path d="M16 18.667c2.945 0 5.333-2.388 5.333-5.333s-2.388-5.333-5.333-5.333-5.333 2.388-5.333 5.333c0 2.946 2.388 5.333 5.333 5.333z"></path>
<path d="M20.667 13.333h2M16 18v2M11.333 13.333h-2M16 8.667v-2"></path>
</symbol>
<symbol id="icon-heat" viewBox="0 0 37 32">
<path d="M18.286 11.968l-2.043-4.089c-0.507-1.013-1.387-2.469-2.633-3.646-1.225-1.159-2.693-1.947-4.466-1.947-3.831 0-6.857 3.031-6.857 6.674 0 2.768 1.266 4.722 4.27 7.703 0.77 0.763 1.648 1.589 2.619 2.498 2.533 2.377 5.682 5.335 9.111 9.289 3.429-3.954 6.578-6.912 9.111-9.289 0.971-0.91 1.851-1.737 2.619-2.498 3.003-2.981 4.27-4.935 4.27-7.703 0-3.643-3.026-6.674-6.857-6.674-1.776 0-3.241 0.789-4.466 1.947-1.246 1.177-2.126 2.633-2.633 3.646l-2.043 4.089zM19.182 30.921c-0.11 0.13-0.247 0.235-0.402 0.307s-0.323 0.109-0.494 0.109-0.339-0.037-0.494-0.109c-0.155-0.072-0.292-0.177-0.402-0.307-3.659-4.347-6.971-7.456-9.698-10.014-4.72-4.432-7.691-7.218-7.691-11.947 0-4.949 4.091-8.96 9.143-8.96 3.657 0 6.215 2.4 7.781 4.59 0.594 0.834 1.047 1.637 1.362 2.267 0.396-0.789 0.851-1.547 1.362-2.267 1.566-2.192 4.123-4.59 7.781-4.59 5.051 0 9.143 4.011 9.143 8.96 0 4.729-2.971 7.515-7.691 11.947-2.727 2.56-6.039 5.671-9.698 10.014z"></path>
</symbol>
<symbol id="icon-Water" viewBox="0 0 73 32">
<path fill="#f2f4f7" style="fill: var(--color1, #f2f4f7)" d="M16 0h41.333c8.837 0 16 7.163 16 16s-7.163 16-16 16h-41.333c-8.837 0-16-7.163-16-16s7.163-16 16-16z"></path>
<path fill="none" stroke="#101828" style="stroke: var(--color2, #101828)" stroke-linejoin="miter" stroke-linecap="butt" stroke-miterlimit="10" stroke-width="0.8333" d="M22.417 17.667c0 2.301-1.449 3.75-3.75 3.75s-3.75-1.449-3.75-3.75c0-2.47 2.688-5.803 3.513-6.768 0.029-0.034 0.066-0.062 0.107-0.081s0.086-0.029 0.131-0.029 0.090 0.010 0.131 0.029c0.041 0.019 0.077 0.046 0.107 0.081 0.824 0.964 3.513 4.298 3.513 6.768z"></path>
<path fill="none" stroke="#101828" style="stroke: var(--color2, #101828)" stroke-linejoin="round" stroke-linecap="round" stroke-miterlimit="4" stroke-width="0.8333" d="M20.958 17.875c0 0.497-0.198 0.974-0.549 1.326s-0.829 0.549-1.326 0.549"></path>
<path fill="#101828" style="fill: var(--color2, #101828)" d="M33.277 20l-2.152-7.758h1.231l1.511 6.008h0.072l1.572-6.008h1.22l1.572 6.011h0.072l1.508-6.011h1.235l-2.155 7.758h-1.178l-1.633-5.811h-0.061l-1.633 5.811h-1.182zM43.215 20.129c-0.369 0-0.702-0.068-1-0.205-0.298-0.139-0.534-0.34-0.708-0.602-0.172-0.263-0.258-0.585-0.258-0.966 0-0.328 0.063-0.598 0.189-0.811s0.297-0.38 0.511-0.504c0.215-0.124 0.455-0.217 0.72-0.28s0.535-0.111 0.811-0.144c0.348-0.040 0.631-0.073 0.848-0.098 0.217-0.028 0.375-0.072 0.473-0.133s0.148-0.159 0.148-0.295v-0.027c0-0.331-0.093-0.587-0.28-0.769-0.184-0.182-0.46-0.273-0.826-0.273-0.381 0-0.682 0.085-0.901 0.254-0.217 0.167-0.367 0.352-0.451 0.557l-1.064-0.242c0.126-0.354 0.311-0.639 0.553-0.856 0.245-0.22 0.526-0.379 0.845-0.477 0.318-0.101 0.653-0.152 1.004-0.152 0.232 0 0.479 0.028 0.739 0.083 0.263 0.053 0.508 0.152 0.735 0.295 0.23 0.144 0.418 0.35 0.564 0.617 0.146 0.265 0.22 0.61 0.22 1.034v3.864h-1.106v-0.795h-0.045c-0.073 0.146-0.183 0.29-0.33 0.432s-0.335 0.259-0.564 0.352c-0.23 0.093-0.505 0.14-0.826 0.14zM43.461 19.22c0.313 0 0.581-0.062 0.803-0.186 0.225-0.124 0.395-0.285 0.511-0.485 0.119-0.202 0.178-0.418 0.178-0.648v-0.75c-0.040 0.040-0.119 0.078-0.235 0.114-0.114 0.033-0.244 0.062-0.39 0.087-0.146 0.023-0.289 0.044-0.428 0.064-0.139 0.018-0.255 0.033-0.349 0.045-0.22 0.028-0.42 0.074-0.602 0.14-0.179 0.066-0.323 0.16-0.432 0.284-0.106 0.121-0.159 0.283-0.159 0.485 0 0.28 0.104 0.492 0.311 0.636 0.207 0.141 0.471 0.212 0.792 0.212zM50.311 14.182v0.909h-3.178v-0.909h3.178zM47.985 12.788h1.133v5.504c0 0.22 0.033 0.385 0.099 0.496 0.066 0.109 0.15 0.183 0.254 0.223 0.106 0.038 0.221 0.057 0.345 0.057 0.091 0 0.17-0.006 0.239-0.019s0.121-0.023 0.159-0.030l0.205 0.936c-0.066 0.025-0.159 0.051-0.28 0.076-0.121 0.028-0.273 0.043-0.455 0.045-0.298 0.005-0.576-0.048-0.833-0.159s-0.466-0.283-0.625-0.515c-0.159-0.232-0.239-0.524-0.239-0.875v-5.739zM54.009 20.117c-0.573 0-1.067-0.122-1.481-0.367-0.412-0.247-0.73-0.595-0.955-1.042-0.222-0.449-0.333-0.976-0.333-1.58 0-0.596 0.111-1.121 0.333-1.576 0.225-0.455 0.538-0.809 0.939-1.064 0.404-0.255 0.876-0.383 1.417-0.383 0.328 0 0.646 0.054 0.955 0.163s0.585 0.279 0.83 0.511c0.245 0.232 0.438 0.534 0.58 0.905 0.141 0.369 0.212 0.817 0.212 1.345v0.401h-4.625v-0.848h3.515c0-0.298-0.061-0.562-0.182-0.792-0.121-0.232-0.292-0.415-0.511-0.549-0.217-0.134-0.472-0.201-0.765-0.201-0.318 0-0.596 0.078-0.833 0.235-0.235 0.154-0.417 0.356-0.545 0.606-0.126 0.247-0.189 0.516-0.189 0.807v0.663c0 0.389 0.068 0.72 0.205 0.992 0.139 0.273 0.332 0.481 0.58 0.625 0.247 0.141 0.537 0.212 0.867 0.212 0.215 0 0.41-0.030 0.587-0.091 0.177-0.063 0.33-0.157 0.458-0.28s0.227-0.277 0.295-0.458l1.072 0.193c-0.086 0.316-0.24 0.592-0.462 0.83-0.22 0.235-0.496 0.418-0.83 0.549-0.331 0.129-0.708 0.193-1.133 0.193zM57.761 20v-5.818h1.095v0.924h0.061c0.106-0.313 0.293-0.559 0.561-0.739 0.27-0.182 0.576-0.273 0.917-0.273 0.071 0 0.154 0.003 0.25 0.008 0.098 0.005 0.176 0.011 0.231 0.019v1.083c-0.045-0.013-0.126-0.027-0.242-0.042-0.116-0.018-0.232-0.027-0.349-0.027-0.268 0-0.506 0.057-0.716 0.17-0.207 0.111-0.371 0.266-0.492 0.466-0.121 0.197-0.182 0.422-0.182 0.674v3.553h-1.133z"></path>
</symbol>
<symbol id="icon-LocationCity" viewBox="0 0 32 32">
<path d="M31.634 0.226c0.115 0.094 0.207 0.212 0.27 0.346s0.096 0.28 0.096 0.428v28c-0 0.231-0.080 0.455-0.227 0.634s-0.351 0.301-0.577 0.346l-10 2c-0.129 0.026-0.263 0.026-0.392 0l-9.804-1.96-9.804 1.96c-0.145 0.029-0.295 0.025-0.438-0.010s-0.277-0.103-0.392-0.197c-0.114-0.094-0.207-0.212-0.27-0.345s-0.096-0.28-0.096-0.428v-28c0-0.231 0.080-0.455 0.227-0.634s0.351-0.301 0.577-0.346l10-2c0.129-0.026 0.263-0.026 0.392 0l9.804 1.96 9.804-1.96c0.145-0.029 0.295-0.026 0.438 0.010s0.277 0.103 0.392 0.196zM20 3.82l-8-1.6v25.96l8 1.6v-25.96zM22 29.78l8-1.6v-25.96l-8 1.6v25.96zM10 28.18v-25.96l-8 1.6v25.96l8-1.6z"></path>
</symbol>
<symbol id="icon-lucide_microwave" viewBox="0 0 32 32">
<path stroke-linejoin="round" stroke-linecap="round" stroke-miterlimit="4" stroke-width="2" d="M26.667 5.333h-21.333c-1.473 0-2.667 1.194-2.667 2.667v14.667c0 1.473 1.194 2.667 2.667 2.667h21.333c1.473 0 2.667-1.194 2.667-2.667v-14.667c0-1.473-1.194-2.667-2.667-2.667z"></path>
<path stroke-linejoin="round" stroke-linecap="round" stroke-miterlimit="4" stroke-width="2" d="M17.333 10.667h-8c-0.736 0-1.333 0.597-1.333 1.333v6.667c0 0.736 0.597 1.333 1.333 1.333h8c0.736 0 1.333-0.597 1.333-1.333v-6.667c0-0.736-0.597-1.333-1.333-1.333z"></path>
<path stroke-linejoin="round" stroke-linecap="round" stroke-miterlimit="4" stroke-width="2" d="M24 10.667v9.333M8 25.333v2.667M24 25.333v2.667"></path>
</symbol>
<symbol id="icon-Gas" viewBox="0 0 63 32">
<path fill="#f2f4f7" style="fill: var(--color1, #f2f4f7)" d="M16 0h30.667c8.837 0 16 7.163 16 16s-7.163 16-16 16h-30.667c-8.837 0-16-7.163-16-16s7.163-16 16-16z"></path>
<path fill="none" stroke="#101828" style="stroke: var(--color2, #101828)" stroke-linejoin="round" stroke-linecap="round" stroke-miterlimit="4" stroke-width="1" d="M15.333 19.889h2.222M22 19.894v-0.005M13.111 12.667c0-1.839 0.383-2.222 2.222-2.222h6.667c1.839 0 2.222 0.383 2.222 2.222v6.667c0 1.839-0.383 2.222-2.222 2.222h-6.667c-1.839 0-2.222-0.383-2.222-2.222v-6.667z"></path>
<path fill="none" stroke="#101828" style="stroke: var(--color2, #101828)" stroke-linejoin="round" stroke-linecap="round" stroke-miterlimit="4" stroke-width="1" d="M18.667 17.111c1.227 0 2.222-0.995 2.222-2.222s-0.995-2.222-2.222-2.222c-1.227 0-2.222 0.995-2.222 2.222s0.995 2.222 2.222 2.222z"></path>
<path fill="none" stroke="#101828" style="stroke: var(--color2, #101828)" stroke-linejoin="round" stroke-linecap="round" stroke-miterlimit="4" stroke-width="1" d="M20.611 14.889h0.833M18.667 16.833v0.833M16.722 14.889h-0.833M18.667 12.944v-0.833"></path>
<path fill="#101828" style="fill: var(--color2, #101828)" d="M36.878 14.693c-0.073-0.23-0.172-0.436-0.295-0.617-0.121-0.184-0.266-0.341-0.436-0.47-0.169-0.131-0.362-0.231-0.58-0.299-0.215-0.068-0.451-0.102-0.708-0.102-0.437 0-0.831 0.112-1.182 0.337s-0.629 0.554-0.833 0.989c-0.202 0.432-0.303 0.961-0.303 1.587 0 0.629 0.102 1.16 0.307 1.595s0.485 0.764 0.841 0.989c0.356 0.225 0.761 0.337 1.216 0.337 0.422 0 0.789-0.086 1.102-0.258 0.316-0.172 0.559-0.414 0.731-0.727 0.174-0.316 0.261-0.687 0.261-1.114l0.303 0.057h-2.22v-0.966h3.049v0.883c0 0.652-0.139 1.217-0.417 1.697-0.275 0.477-0.657 0.846-1.144 1.106-0.485 0.26-1.040 0.39-1.667 0.39-0.702 0-1.318-0.162-1.848-0.485-0.528-0.323-0.939-0.782-1.235-1.375-0.295-0.596-0.443-1.303-0.443-2.121 0-0.619 0.086-1.174 0.258-1.667s0.413-0.91 0.724-1.254c0.313-0.346 0.681-0.61 1.102-0.792 0.424-0.184 0.888-0.277 1.39-0.277 0.419 0 0.809 0.062 1.17 0.186 0.364 0.124 0.687 0.299 0.97 0.526 0.285 0.227 0.521 0.497 0.708 0.811 0.187 0.311 0.313 0.655 0.379 1.034h-1.201zM41.22 20.129c-0.369 0-0.702-0.068-1-0.205-0.298-0.139-0.534-0.34-0.708-0.602-0.172-0.263-0.258-0.585-0.258-0.966 0-0.328 0.063-0.598 0.189-0.811s0.297-0.38 0.511-0.504c0.215-0.124 0.455-0.217 0.72-0.28s0.535-0.111 0.811-0.144c0.348-0.040 0.631-0.073 0.848-0.098 0.217-0.028 0.375-0.072 0.473-0.133s0.148-0.159 0.148-0.295v-0.027c0-0.331-0.093-0.587-0.28-0.769-0.184-0.182-0.46-0.273-0.826-0.273-0.381 0-0.682 0.085-0.901 0.254-0.217 0.167-0.367 0.352-0.451 0.557l-1.064-0.242c0.126-0.354 0.311-0.639 0.553-0.856 0.245-0.22 0.527-0.379 0.845-0.477 0.318-0.101 0.653-0.152 1.004-0.152 0.232 0 0.479 0.028 0.739 0.083 0.263 0.053 0.508 0.152 0.735 0.295 0.23 0.144 0.418 0.35 0.564 0.617 0.146 0.265 0.22 0.61 0.22 1.034v3.864h-1.106v-0.795h-0.045c-0.073 0.146-0.183 0.29-0.33 0.432s-0.335 0.259-0.564 0.352c-0.23 0.093-0.505 0.14-0.826 0.14zM41.466 19.22c0.313 0 0.581-0.062 0.803-0.186 0.225-0.124 0.395-0.285 0.511-0.485 0.119-0.202 0.178-0.418 0.178-0.648v-0.75c-0.040 0.040-0.119 0.078-0.235 0.114-0.114 0.033-0.244 0.062-0.39 0.087-0.146 0.023-0.289 0.044-0.428 0.064-0.139 0.018-0.255 0.033-0.349 0.045-0.22 0.028-0.42 0.074-0.602 0.14-0.179 0.066-0.323 0.16-0.432 0.284-0.106 0.121-0.159 0.283-0.159 0.485 0 0.28 0.104 0.492 0.311 0.636 0.207 0.141 0.471 0.212 0.792 0.212zM49.96 15.602l-1.026 0.182c-0.043-0.131-0.111-0.256-0.205-0.375-0.091-0.119-0.215-0.216-0.371-0.292s-0.352-0.114-0.587-0.114c-0.321 0-0.588 0.072-0.803 0.216-0.215 0.141-0.322 0.325-0.322 0.549 0 0.194 0.072 0.351 0.216 0.47s0.376 0.216 0.697 0.292l0.924 0.212c0.535 0.124 0.934 0.314 1.197 0.572s0.394 0.592 0.394 1.004c0 0.348-0.101 0.659-0.303 0.932-0.199 0.27-0.479 0.482-0.837 0.636-0.356 0.154-0.769 0.231-1.239 0.231-0.652 0-1.183-0.139-1.595-0.417-0.412-0.28-0.664-0.678-0.758-1.193l1.095-0.167c0.068 0.285 0.208 0.501 0.42 0.648 0.212 0.144 0.489 0.216 0.83 0.216 0.371 0 0.668-0.077 0.89-0.231 0.222-0.157 0.333-0.347 0.333-0.572 0-0.182-0.068-0.335-0.205-0.458-0.134-0.124-0.34-0.217-0.617-0.28l-0.985-0.216c-0.543-0.124-0.944-0.321-1.205-0.591-0.258-0.27-0.386-0.612-0.386-1.027 0-0.343 0.096-0.644 0.288-0.902s0.457-0.458 0.795-0.602c0.338-0.146 0.726-0.22 1.163-0.22 0.629 0 1.124 0.136 1.485 0.409 0.361 0.27 0.6 0.633 0.716 1.087z"></path>
</symbol>
<symbol id="icon-FrameAlcove" viewBox="0 0 26 32">
<path d="M9 2v2h-2v-2h2zM10 14v-2c0-0.265-0.105-0.52-0.293-0.707s-0.442-0.293-0.707-0.293h-2c-0.265 0-0.52 0.105-0.707 0.293s-0.293 0.442-0.293 0.707v2c0 0.265 0.105 0.52 0.293 0.707s0.442 0.293 0.707 0.293h2c0.265 0 0.52-0.105 0.707-0.293s0.293-0.442 0.293-0.707zM10 9v-2c0-0.265-0.105-0.52-0.293-0.707s-0.442-0.293-0.707-0.293h-2c-0.265 0-0.52 0.105-0.707 0.293s-0.293 0.442-0.293 0.707v2c0 0.265 0.105 0.52 0.293 0.707s0.442 0.293 0.707 0.293h2c0.265 0 0.52-0.105 0.707-0.293s0.293-0.442 0.293-0.707zM10 4v-2c0-0.265-0.105-0.52-0.293-0.707s-0.442-0.293-0.707-0.293h-2c-0.265 0-0.52 0.105-0.707 0.293s-0.293 0.442-0.293 0.707v2c0 0.265 0.105 0.52 0.293 0.707s0.442 0.293 0.707 0.293h2c0.265 0 0.52-0.105 0.707-0.293s0.293-0.442 0.293-0.707zM15 14v-2c0-0.265-0.105-0.52-0.293-0.707s-0.442-0.293-0.707-0.293h-2c-0.265 0-0.52 0.105-0.707 0.293s-0.293 0.442-0.293 0.707v2c0 0.265 0.105 0.52 0.293 0.707s0.442 0.293 0.707 0.293h2c0.265 0 0.52-0.105 0.707-0.293s0.293-0.442 0.293-0.707zM15 9v-2c0-0.265-0.105-0.52-0.293-0.707s-0.442-0.293-0.707-0.293h-2c-0.265 0-0.52 0.105-0.707 0.293s-0.293 0.442-0.293 0.707v2c0 0.265 0.105 0.52 0.293 0.707s0.442 0.293 0.707 0.293h2c0.265 0 0.52-0.105 0.707-0.293s0.293-0.442 0.293-0.707zM15 4v-2c0-0.265-0.105-0.52-0.293-0.707s-0.442-0.293-0.707-0.293h-2c-0.265 0-0.52 0.105-0.707 0.293s-0.293 0.442-0.293 0.707v2c0 0.265 0.105 0.52 0.293 0.707s0.442 0.293 0.707 0.293h2c0.265 0 0.52-0.105 0.707-0.293s0.293-0.442 0.293-0.707zM14 2v2h-2v-2h2zM19 2v2h-2v-2h2zM9 7v2h-2v-2h2zM14 7v2h-2v-2h2zM19 7h-2v2h2v-2zM9 12v2h-2v-2h2zM14 12v2h-2v-2h2zM19 12v2h-2v-2h2zM17 1c-0.265 0-0.52 0.105-0.707 0.293s-0.293 0.442-0.293 0.707v2c0 0.265 0.105 0.52 0.293 0.707s0.442 0.293 0.707 0.293h2c0.265 0 0.52-0.105 0.707-0.293s0.293-0.442 0.293-0.707v-2c0-0.265-0.105-0.52-0.293-0.707s-0.442-0.293-0.707-0.293h-2zM16 7c0-0.265 0.105-0.52 0.293-0.707s0.442-0.293 0.707-0.293h2c0.265 0 0.52 0.105 0.707 0.293s0.293 0.442 0.293 0.707v2c0 0.265-0.105 0.52-0.293 0.707s-0.442 0.293-0.707 0.293h-2c-0.265 0-0.52-0.105-0.707-0.293s-0.293-0.442-0.293-0.707v-2zM17 11c-0.265 0-0.52 0.105-0.707 0.293s-0.293 0.442-0.293 0.707v2c0 0.265 0.105 0.52 0.293 0.707s0.442 0.293 0.707 0.293h2c0.265 0 0.52-0.105 0.707-0.293s0.293-0.442 0.293-0.707v-2c0-0.265-0.105-0.52-0.293-0.707s-0.442-0.293-0.707-0.293h-2z"></path>
<path d="M1.289 29h-0.932l2.094-5.818h1.014l2.094 5.818h-0.932l-1.645-4.761h-0.045l-1.648 4.761zM1.446 26.722h3.023v0.739h-3.023v-0.739zM7.141 23.182v5.818h-0.849v-5.818h0.849zM10.081 29.088c-0.422 0-0.786-0.096-1.091-0.287-0.303-0.193-0.536-0.459-0.699-0.798s-0.244-0.727-0.244-1.165c0-0.443 0.083-0.834 0.25-1.173 0.167-0.341 0.402-0.607 0.705-0.798s0.66-0.287 1.071-0.287c0.331 0 0.627 0.062 0.886 0.185 0.259 0.121 0.469 0.292 0.628 0.511 0.161 0.22 0.257 0.476 0.287 0.77h-0.827c-0.045-0.205-0.15-0.381-0.313-0.528-0.161-0.148-0.377-0.222-0.648-0.222-0.237 0-0.444 0.063-0.622 0.188-0.176 0.123-0.313 0.299-0.412 0.528-0.098 0.227-0.148 0.496-0.148 0.807 0 0.318 0.048 0.593 0.145 0.824s0.233 0.41 0.409 0.537c0.178 0.127 0.387 0.19 0.628 0.19 0.161 0 0.307-0.029 0.438-0.088 0.133-0.061 0.243-0.147 0.332-0.259 0.091-0.112 0.154-0.246 0.19-0.403h0.827c-0.030 0.282-0.122 0.534-0.276 0.756s-0.359 0.396-0.617 0.523c-0.256 0.127-0.556 0.19-0.901 0.19zM14.581 29.088c-0.409 0-0.766-0.094-1.071-0.281s-0.542-0.45-0.71-0.787c-0.169-0.337-0.253-0.731-0.253-1.182 0-0.453 0.084-0.848 0.253-1.188s0.405-0.602 0.71-0.79c0.305-0.188 0.662-0.281 1.071-0.281s0.766 0.094 1.071 0.281c0.305 0.188 0.542 0.451 0.71 0.79s0.253 0.735 0.253 1.188c0 0.451-0.084 0.845-0.253 1.182s-0.405 0.599-0.71 0.787c-0.305 0.188-0.662 0.281-1.071 0.281zM14.583 28.375c0.265 0 0.485-0.070 0.659-0.21s0.303-0.327 0.386-0.56c0.085-0.233 0.128-0.49 0.128-0.77 0-0.278-0.043-0.534-0.128-0.767-0.083-0.235-0.212-0.423-0.386-0.565s-0.394-0.213-0.659-0.213c-0.267 0-0.489 0.071-0.665 0.213-0.174 0.142-0.304 0.331-0.389 0.565-0.083 0.233-0.125 0.489-0.125 0.767 0 0.28 0.042 0.537 0.125 0.77 0.085 0.233 0.215 0.419 0.389 0.56 0.176 0.14 0.398 0.21 0.665 0.21zM21.107 24.636l-1.582 4.364h-0.909l-1.585-4.364h0.912l1.105 3.358h0.045l1.102-3.358h0.912zM23.598 29.088c-0.43 0-0.8-0.092-1.111-0.276-0.309-0.186-0.547-0.446-0.716-0.781-0.167-0.337-0.25-0.732-0.25-1.185 0-0.447 0.083-0.841 0.25-1.182 0.169-0.341 0.403-0.607 0.705-0.798 0.303-0.191 0.657-0.287 1.063-0.287 0.246 0 0.485 0.041 0.716 0.122s0.438 0.209 0.622 0.384c0.184 0.174 0.329 0.401 0.435 0.679 0.106 0.276 0.159 0.613 0.159 1.009v0.301h-3.469v-0.636h2.636c0-0.224-0.045-0.421-0.136-0.594-0.091-0.174-0.219-0.312-0.384-0.412-0.163-0.1-0.354-0.151-0.574-0.151-0.239 0-0.447 0.059-0.625 0.176-0.176 0.116-0.313 0.267-0.409 0.455-0.095 0.186-0.142 0.387-0.142 0.605v0.497c0 0.292 0.051 0.54 0.153 0.744 0.104 0.205 0.249 0.361 0.435 0.469 0.186 0.106 0.402 0.159 0.651 0.159 0.161 0 0.308-0.023 0.44-0.068 0.133-0.047 0.247-0.117 0.344-0.21s0.17-0.207 0.222-0.344l0.804 0.145c-0.064 0.237-0.18 0.444-0.347 0.622-0.165 0.176-0.372 0.313-0.622 0.412-0.248 0.097-0.531 0.145-0.849 0.145z"></path>
</symbol>
<symbol id="icon-FrameFully" viewBox="0 0 29 32">
<path d="M9.455 1.818c0-0.289 0.115-0.567 0.32-0.771s0.482-0.32 0.771-0.32h2.182c0.289 0 0.567 0.115 0.771 0.32s0.32 0.482 0.32 0.771v2.182c0 0.289-0.115 0.567-0.32 0.771s-0.482 0.32-0.771 0.32h-2.182c-0.289 0-0.567-0.115-0.771-0.32s-0.32-0.482-0.32-0.771v-2.182zM10.545 1.455c-0.096 0-0.189 0.038-0.257 0.107s-0.107 0.161-0.107 0.257v2.182c0 0.096 0.038 0.189 0.107 0.257s0.161 0.106 0.257 0.106h2.182c0.096 0 0.189-0.038 0.257-0.106s0.107-0.161 0.107-0.257v-2.182c0-0.096-0.038-0.189-0.107-0.257s-0.161-0.107-0.257-0.107h-2.182zM15.273 1.818c0-0.289 0.115-0.567 0.32-0.771s0.482-0.32 0.771-0.32h2.182c0.289 0 0.567 0.115 0.771 0.32s0.32 0.482 0.32 0.771v2.182c0 0.289-0.115 0.567-0.32 0.771s-0.482 0.32-0.771 0.32h-2.182c-0.289 0-0.567-0.115-0.771-0.32s-0.32-0.482-0.32-0.771v-2.182zM16.364 1.455c-0.096 0-0.189 0.038-0.257 0.107s-0.107 0.161-0.107 0.257v2.182c0 0.096 0.038 0.189 0.107 0.257s0.161 0.106 0.257 0.106h2.182c0.096 0 0.189-0.038 0.257-0.106s0.107-0.161 0.107-0.257v-2.182c0-0.096-0.038-0.189-0.107-0.257s-0.161-0.107-0.257-0.107h-2.182zM9.455 7.636c0-0.289 0.115-0.567 0.32-0.771s0.482-0.32 0.771-0.32h2.182c0.289 0 0.567 0.115 0.771 0.32s0.32 0.482 0.32 0.771v2.182c0 0.289-0.115 0.567-0.32 0.771s-0.482 0.32-0.771 0.32h-2.182c-0.289 0-0.567-0.115-0.771-0.32s-0.32-0.482-0.32-0.771v-2.182zM10.545 7.273c-0.096 0-0.189 0.038-0.257 0.106s-0.107 0.161-0.107 0.257v2.182c0 0.096 0.038 0.189 0.107 0.257s0.161 0.107 0.257 0.107h2.182c0.096 0 0.189-0.038 0.257-0.107s0.107-0.161 0.107-0.257v-2.182c0-0.096-0.038-0.189-0.107-0.257s-0.161-0.106-0.257-0.106h-2.182zM15.273 7.636c0-0.289 0.115-0.567 0.32-0.771s0.482-0.32 0.771-0.32h2.182c0.289 0 0.567 0.115 0.771 0.32s0.32 0.482 0.32 0.771v2.182c0 0.289-0.115 0.567-0.32 0.771s-0.482 0.32-0.771 0.32h-2.182c-0.289 0-0.567-0.115-0.771-0.32s-0.32-0.482-0.32-0.771v-2.182zM16.364 7.273c-0.096 0-0.189 0.038-0.257 0.106s-0.107 0.161-0.107 0.257v2.182c0 0.096 0.038 0.189 0.107 0.257s0.161 0.107 0.257 0.107h2.182c0.096 0 0.189-0.038 0.257-0.107s0.107-0.161 0.107-0.257v-2.182c0-0.096-0.038-0.189-0.107-0.257s-0.161-0.106-0.257-0.106h-2.182z"></path>
<path d="M8.651 21.091v-4.231h2.624v0.55h-1.986v1.289h1.798v0.547h-1.798v1.845h-0.638zM13.793 19.775v-1.857h0.62v3.174h-0.607v-0.55h-0.033c-0.073 0.169-0.19 0.311-0.351 0.424-0.16 0.112-0.359 0.167-0.597 0.167-0.204 0-0.384-0.045-0.541-0.134-0.156-0.091-0.278-0.225-0.368-0.403-0.088-0.178-0.132-0.397-0.132-0.659v-2.019h0.618v1.944c0 0.216 0.060 0.388 0.18 0.517s0.275 0.192 0.467 0.192c0.116 0 0.231-0.029 0.345-0.087 0.116-0.058 0.211-0.145 0.287-0.262 0.077-0.117 0.115-0.266 0.114-0.446zM15.832 16.86v4.231h-0.618v-4.231h0.618zM17.251 16.86v4.231h-0.618v-4.231h0.618zM18.444 22.281c-0.092 0-0.176-0.008-0.252-0.023-0.076-0.014-0.132-0.029-0.169-0.045l0.149-0.506c0.113 0.030 0.213 0.043 0.302 0.039s0.166-0.037 0.233-0.099c0.069-0.062 0.13-0.163 0.182-0.304l0.076-0.211-1.161-3.215h0.661l0.804 2.463h0.033l0.804-2.463h0.663l-1.308 3.597c-0.061 0.165-0.138 0.305-0.231 0.419-0.094 0.116-0.205 0.202-0.335 0.26s-0.28 0.087-0.45 0.087zM1.337 25.587v4.231h-0.638v-4.231h0.638zM2.805 27.934v1.884h-0.618v-3.174h0.593v0.517h0.039c0.073-0.168 0.187-0.303 0.343-0.405 0.157-0.102 0.355-0.153 0.593-0.153 0.216 0 0.406 0.045 0.568 0.136 0.163 0.090 0.289 0.223 0.378 0.401s0.134 0.397 0.134 0.659v2.019h-0.618v-1.944c0-0.23-0.060-0.41-0.18-0.539-0.12-0.131-0.284-0.196-0.494-0.196-0.143 0-0.271 0.031-0.382 0.093-0.11 0.062-0.198 0.153-0.262 0.273-0.063 0.118-0.095 0.262-0.095 0.43zM7.117 26.645v0.496h-1.734v-0.496h1.734zM5.849 25.884h0.618v3.002c0 0.12 0.018 0.21 0.054 0.271 0.036 0.059 0.082 0.1 0.138 0.122 0.058 0.021 0.12 0.031 0.188 0.031 0.050 0 0.093-0.003 0.13-0.010s0.066-0.012 0.087-0.017l0.112 0.51c-0.036 0.014-0.087 0.028-0.153 0.041-0.066 0.015-0.149 0.023-0.248 0.025-0.163 0.003-0.314-0.026-0.455-0.087s-0.254-0.154-0.341-0.281c-0.087-0.127-0.13-0.286-0.13-0.477v-3.13zM9.105 29.882c-0.313 0-0.582-0.067-0.808-0.2-0.225-0.135-0.398-0.324-0.521-0.568-0.121-0.245-0.182-0.532-0.182-0.862 0-0.325 0.061-0.612 0.182-0.86 0.123-0.248 0.293-0.441 0.512-0.581 0.22-0.139 0.478-0.209 0.773-0.209 0.179 0 0.353 0.030 0.521 0.089s0.319 0.152 0.453 0.279c0.134 0.127 0.239 0.291 0.316 0.494 0.077 0.201 0.116 0.446 0.116 0.733v0.219h-2.523v-0.463h1.917c0-0.163-0.033-0.306-0.099-0.432-0.066-0.127-0.159-0.227-0.279-0.3-0.118-0.073-0.258-0.11-0.417-0.11-0.174 0-0.325 0.043-0.455 0.128-0.128 0.084-0.227 0.194-0.298 0.331-0.069 0.135-0.103 0.282-0.103 0.44v0.362c0 0.212 0.037 0.393 0.112 0.541 0.076 0.149 0.181 0.262 0.316 0.341 0.135 0.077 0.293 0.116 0.473 0.116 0.117 0 0.224-0.017 0.32-0.050 0.096-0.034 0.18-0.085 0.25-0.153s0.124-0.151 0.161-0.25l0.585 0.105c-0.047 0.172-0.131 0.323-0.252 0.452-0.12 0.128-0.271 0.228-0.452 0.3-0.18 0.070-0.386 0.105-0.618 0.105zM12.454 31.074c-0.252 0-0.469-0.033-0.651-0.099-0.18-0.066-0.328-0.154-0.442-0.262s-0.2-0.228-0.256-0.357l0.531-0.219c0.037 0.061 0.087 0.125 0.149 0.192 0.063 0.069 0.149 0.127 0.256 0.176 0.109 0.048 0.249 0.072 0.419 0.072 0.234 0 0.428-0.057 0.581-0.172 0.153-0.113 0.229-0.293 0.229-0.541v-0.624h-0.039c-0.037 0.067-0.091 0.143-0.161 0.225-0.069 0.083-0.164 0.154-0.285 0.215s-0.279 0.091-0.473 0.091c-0.251 0-0.477-0.059-0.678-0.176-0.2-0.118-0.358-0.293-0.475-0.523-0.116-0.231-0.174-0.516-0.174-0.853s0.057-0.627 0.171-0.868c0.116-0.241 0.274-0.426 0.475-0.554 0.201-0.13 0.429-0.194 0.684-0.194 0.197 0 0.356 0.033 0.477 0.099 0.121 0.065 0.216 0.14 0.283 0.227 0.069 0.087 0.122 0.163 0.159 0.229h0.045v-0.514h0.605v3.244c0 0.273-0.063 0.497-0.19 0.672s-0.298 0.304-0.514 0.388c-0.215 0.084-0.457 0.126-0.727 0.126zM12.447 29.258c0.178 0 0.328-0.041 0.45-0.124 0.124-0.084 0.218-0.204 0.281-0.36 0.065-0.157 0.097-0.345 0.097-0.564 0-0.213-0.032-0.401-0.095-0.564s-0.156-0.289-0.279-0.38c-0.123-0.092-0.274-0.138-0.455-0.138-0.186 0-0.341 0.048-0.465 0.145-0.124 0.095-0.218 0.224-0.281 0.388-0.062 0.164-0.093 0.347-0.093 0.55 0 0.208 0.032 0.39 0.095 0.548s0.157 0.28 0.281 0.368c0.125 0.088 0.28 0.132 0.463 0.132zM14.685 29.818v-3.174h0.597v0.504h0.033c0.058-0.171 0.16-0.305 0.306-0.403 0.147-0.099 0.314-0.149 0.5-0.149 0.039 0 0.084 0.001 0.136 0.004 0.054 0.003 0.096 0.006 0.126 0.010v0.591c-0.025-0.007-0.069-0.014-0.132-0.023-0.063-0.010-0.127-0.014-0.19-0.014-0.146 0-0.276 0.031-0.39 0.093-0.113 0.061-0.202 0.145-0.269 0.254-0.066 0.107-0.099 0.23-0.099 0.368v1.938h-0.618zM17.784 29.888c-0.201 0-0.383-0.037-0.545-0.112-0.163-0.076-0.291-0.185-0.386-0.328-0.094-0.143-0.14-0.319-0.14-0.527 0-0.179 0.034-0.326 0.103-0.442s0.162-0.207 0.279-0.275c0.117-0.067 0.248-0.118 0.393-0.153s0.292-0.061 0.442-0.078c0.19-0.022 0.344-0.040 0.463-0.054 0.118-0.015 0.205-0.039 0.258-0.072s0.081-0.087 0.081-0.161v-0.014c0-0.18-0.051-0.32-0.153-0.419-0.101-0.099-0.251-0.149-0.45-0.149-0.208 0-0.372 0.046-0.492 0.138-0.118 0.091-0.2 0.192-0.246 0.304l-0.581-0.132c0.069-0.193 0.169-0.349 0.302-0.467 0.134-0.12 0.287-0.207 0.461-0.26 0.174-0.055 0.356-0.083 0.548-0.083 0.127 0 0.261 0.015 0.403 0.045 0.143 0.029 0.277 0.083 0.401 0.161 0.125 0.078 0.228 0.191 0.308 0.337 0.080 0.145 0.12 0.333 0.12 0.564v2.107h-0.603v-0.434h-0.025c-0.040 0.080-0.1 0.158-0.18 0.236s-0.183 0.141-0.308 0.192c-0.125 0.051-0.276 0.076-0.45 0.076zM17.918 29.393c0.171 0 0.317-0.034 0.438-0.101 0.123-0.067 0.216-0.156 0.279-0.264 0.065-0.11 0.097-0.228 0.097-0.353v-0.409c-0.022 0.022-0.065 0.043-0.128 0.062-0.062 0.018-0.133 0.034-0.213 0.048-0.080 0.012-0.158 0.024-0.233 0.035-0.076 0.010-0.139 0.018-0.19 0.025-0.12 0.015-0.229 0.041-0.329 0.076-0.098 0.036-0.176 0.087-0.236 0.155-0.058 0.066-0.087 0.154-0.087 0.264 0 0.153 0.056 0.269 0.169 0.347 0.113 0.077 0.257 0.116 0.432 0.116zM21.625 26.645v0.496h-1.733v-0.496h1.733zM20.357 25.884h0.618v3.002c0 0.12 0.018 0.21 0.054 0.271 0.036 0.059 0.082 0.1 0.138 0.122 0.058 0.021 0.12 0.031 0.188 0.031 0.050 0 0.093-0.003 0.13-0.010s0.066-0.012 0.087-0.017l0.112 0.51c-0.036 0.014-0.087 0.028-0.153 0.041-0.066 0.015-0.149 0.023-0.248 0.025-0.163 0.003-0.314-0.026-0.455-0.087s-0.254-0.154-0.341-0.281c-0.087-0.127-0.13-0.286-0.13-0.477v-3.13zM23.613 29.882c-0.313 0-0.582-0.067-0.808-0.2-0.224-0.135-0.398-0.324-0.521-0.568-0.121-0.245-0.182-0.532-0.182-0.862 0-0.325 0.061-0.612 0.182-0.86 0.123-0.248 0.293-0.441 0.512-0.581 0.22-0.139 0.478-0.209 0.773-0.209 0.179 0 0.353 0.030 0.521 0.089s0.319 0.152 0.452 0.279c0.134 0.127 0.239 0.291 0.316 0.494 0.077 0.201 0.116 0.446 0.116 0.733v0.219h-2.523v-0.463h1.917c0-0.163-0.033-0.306-0.099-0.432-0.066-0.127-0.159-0.227-0.279-0.3-0.118-0.073-0.258-0.11-0.417-0.11-0.174 0-0.325 0.043-0.455 0.128-0.128 0.084-0.227 0.194-0.298 0.331-0.069 0.135-0.103 0.282-0.103 0.44v0.362c0 0.212 0.037 0.393 0.112 0.541 0.076 0.149 0.181 0.262 0.316 0.341 0.135 0.077 0.293 0.116 0.473 0.116 0.117 0 0.224-0.017 0.32-0.050 0.096-0.034 0.18-0.085 0.25-0.153s0.124-0.151 0.161-0.25l0.585 0.105c-0.047 0.172-0.131 0.323-0.252 0.452-0.12 0.128-0.271 0.228-0.452 0.3-0.18 0.070-0.386 0.105-0.618 0.105zM26.819 29.88c-0.256 0-0.485-0.065-0.686-0.196-0.2-0.132-0.357-0.32-0.471-0.564-0.113-0.245-0.169-0.539-0.169-0.882s0.057-0.636 0.172-0.88c0.116-0.244 0.274-0.43 0.475-0.56s0.429-0.194 0.684-0.194c0.197 0 0.355 0.033 0.475 0.099 0.121 0.065 0.215 0.14 0.281 0.227 0.067 0.087 0.12 0.163 0.157 0.229h0.037v-1.572h0.618v4.231h-0.603v-0.494h-0.052c-0.037 0.068-0.091 0.145-0.161 0.231-0.069 0.087-0.164 0.163-0.285 0.227s-0.278 0.097-0.471 0.097zM26.955 29.353c0.178 0 0.328-0.047 0.45-0.14 0.124-0.095 0.218-0.227 0.281-0.395 0.065-0.168 0.097-0.364 0.097-0.587 0-0.22-0.032-0.413-0.095-0.579s-0.156-0.294-0.279-0.386c-0.123-0.092-0.274-0.138-0.455-0.138-0.186 0-0.341 0.048-0.465 0.145s-0.218 0.228-0.281 0.395c-0.062 0.167-0.093 0.355-0.093 0.564 0 0.212 0.032 0.403 0.095 0.572s0.157 0.304 0.281 0.403c0.125 0.098 0.28 0.147 0.463 0.147z"></path>
</symbol>
<symbol id="icon-FrameVan" viewBox="0 0 16 32">
<path d="M6 1h-5v14h5v-14zM15 1h-5v5h5v-5zM15 10v5h-5v-5h5zM0 1c0-0.265 0.105-0.52 0.293-0.707s0.442-0.293 0.707-0.293h5c0.265 0 0.52 0.105 0.707 0.293s0.293 0.442 0.293 0.707v14c0 0.265-0.105 0.52-0.293 0.707s-0.442 0.293-0.707 0.293h-5c-0.265 0-0.52-0.105-0.707-0.293s-0.293-0.442-0.293-0.707v-14zM9 1c0-0.265 0.105-0.52 0.293-0.707s0.442-0.293 0.707-0.293h5c0.265 0 0.52 0.105 0.707 0.293s0.293 0.442 0.293 0.707v5c0 0.265-0.105 0.52-0.293 0.707s-0.442 0.293-0.707 0.293h-5c-0.265 0-0.52-0.105-0.707-0.293s-0.293-0.442-0.293-0.707v-5zM10 9c-0.265 0-0.52 0.105-0.707 0.293s-0.293 0.442-0.293 0.707v5c0 0.265 0.105 0.52 0.293 0.707s0.442 0.293 0.707 0.293h5c0.265 0 0.52-0.105 0.707-0.293s0.293-0.442 0.293-0.707v-5c0-0.265-0.105-0.52-0.293-0.707s-0.442-0.293-0.707-0.293h-5z"></path>
<path d="M1.934 23.182l1.619 4.739h0.065l1.619-4.739h0.949l-2.094 5.818h-1.014l-2.094-5.818h0.949zM7.759 29.097c-0.277 0-0.527-0.051-0.75-0.153-0.223-0.104-0.401-0.255-0.531-0.452-0.129-0.197-0.193-0.438-0.193-0.724 0-0.246 0.047-0.449 0.142-0.608s0.223-0.285 0.383-0.378c0.161-0.093 0.341-0.163 0.54-0.21s0.402-0.083 0.608-0.108c0.261-0.030 0.473-0.055 0.636-0.074 0.163-0.021 0.281-0.054 0.355-0.099s0.111-0.119 0.111-0.222v-0.020c0-0.248-0.070-0.44-0.21-0.577-0.138-0.136-0.345-0.205-0.619-0.205-0.286 0-0.511 0.063-0.676 0.19-0.163 0.125-0.276 0.264-0.338 0.418l-0.798-0.182c0.095-0.265 0.233-0.479 0.415-0.642 0.184-0.165 0.395-0.284 0.633-0.358 0.239-0.076 0.49-0.114 0.753-0.114 0.174 0 0.359 0.021 0.554 0.063 0.197 0.040 0.381 0.114 0.551 0.222 0.172 0.108 0.313 0.262 0.423 0.463 0.11 0.199 0.165 0.457 0.165 0.776v2.898h-0.83v-0.597h-0.034c-0.055 0.11-0.137 0.218-0.247 0.324s-0.251 0.194-0.423 0.264c-0.172 0.070-0.379 0.105-0.619 0.105zM7.944 28.415c0.235 0 0.436-0.046 0.602-0.139 0.169-0.093 0.296-0.214 0.384-0.364 0.089-0.152 0.133-0.313 0.133-0.486v-0.563c-0.030 0.030-0.089 0.059-0.176 0.085-0.085 0.025-0.183 0.046-0.293 0.065-0.11 0.017-0.217 0.033-0.321 0.048-0.104 0.013-0.191 0.025-0.261 0.034-0.165 0.021-0.315 0.056-0.452 0.105-0.134 0.049-0.242 0.12-0.324 0.213-0.080 0.091-0.119 0.212-0.119 0.364 0 0.21 0.078 0.369 0.233 0.477 0.155 0.106 0.353 0.159 0.594 0.159zM11.853 26.409v2.591h-0.849v-4.364h0.815v0.71h0.054c0.1-0.231 0.258-0.417 0.472-0.557 0.216-0.14 0.488-0.21 0.815-0.21 0.297 0 0.558 0.063 0.781 0.188 0.223 0.123 0.397 0.307 0.52 0.551s0.185 0.546 0.185 0.906v2.776h-0.849v-2.673c0-0.316-0.082-0.563-0.247-0.741-0.165-0.18-0.391-0.27-0.679-0.27-0.197 0-0.372 0.043-0.526 0.128-0.152 0.085-0.272 0.21-0.361 0.375-0.087 0.163-0.131 0.36-0.131 0.591z"></path>
</symbol>
<symbol id="icon-heat1" viewBox="0 0 37 32">
<path d="M18.286 11.968l-2.043-4.089c-0.507-1.013-1.387-2.469-2.633-3.646-1.225-1.159-2.693-1.947-4.466-1.947-3.831 0-6.857 3.031-6.857 6.674 0 2.768 1.266 4.722 4.27 7.703 0.77 0.763 1.648 1.589 2.619 2.498 2.533 2.377 5.682 5.335 9.111 9.289 3.429-3.954 6.578-6.912 9.111-9.289 0.971-0.91 1.851-1.737 2.619-2.498 3.003-2.981 4.27-4.935 4.27-7.703 0-3.643-3.026-6.674-6.857-6.674-1.776 0-3.241 0.789-4.466 1.947-1.246 1.177-2.126 2.633-2.633 3.646l-2.043 4.089zM19.182 30.921c-0.11 0.13-0.247 0.235-0.402 0.307s-0.323 0.109-0.494 0.109-0.339-0.037-0.494-0.109c-0.155-0.072-0.292-0.177-0.402-0.307-3.659-4.347-6.971-7.456-9.698-10.014-4.72-4.432-7.691-7.218-7.691-11.947 0-4.949 4.091-8.96 9.143-8.96 3.657 0 6.215 2.4 7.781 4.59 0.594 0.834 1.047 1.637 1.362 2.267 0.396-0.789 0.851-1.547 1.362-2.267 1.566-2.192 4.123-4.59 7.781-4.59 5.051 0 9.143 4.011 9.143 8.96 0 4.729-2.971 7.515-7.691 11.947-2.727 2.56-6.039 5.671-9.698 10.014z"></path>
</symbol>
<symbol id="icon-hugeicons_gas-stove1" viewBox="0 0 32 32">
<path stroke-linejoin="round" stroke-linecap="round" stroke-miterlimit="4" stroke-width="2.4" d="M8 25.333h5.333M24 25.345v-0.012M2.667 8c0-4.413 0.92-5.333 5.333-5.333h16c4.413 0 5.333 0.92 5.333 5.333v16c0 4.413-0.92 5.333-5.333 5.333h-16c-4.413 0-5.333-0.92-5.333-5.333v-16z"></path>
<path stroke-linejoin="round" stroke-linecap="round" stroke-miterlimit="4" stroke-width="2.4" d="M16 18.667c2.945 0 5.333-2.388 5.333-5.333s-2.388-5.333-5.333-5.333-5.333 2.388-5.333 5.333c0 2.946 2.388 5.333 5.333 5.333z"></path>
<path stroke-linejoin="round" stroke-linecap="round" stroke-miterlimit="4" stroke-width="2.4" d="M20.667 13.333h2M16 18v2M11.333 13.333h-2M16 8.667v-2"></path>
</symbol>
<symbol id="icon-cup-hot" viewBox="0 0 32 32">
<path d="M1 12c-0.15 0-0.297 0.034-0.432 0.098s-0.254 0.159-0.347 0.276c-0.094 0.117-0.16 0.253-0.194 0.399s-0.035 0.297-0.003 0.443l3.304 14.868c0.247 1.11 0.865 2.104 1.752 2.816s1.991 1.1 3.128 1.1h11.584c1.138-0 2.241-0.388 3.128-1.1s1.505-1.705 1.752-2.816l0.262-1.18c1.53 0.286 3.111-0.033 4.41-0.891s2.213-2.186 2.551-3.706c0.337-1.519 0.071-3.11-0.742-4.437s-2.111-2.285-3.618-2.674l0.442-1.98c0.032-0.146 0.031-0.298-0.003-0.443s-0.1-0.282-0.194-0.399c-0.094-0.117-0.212-0.211-0.347-0.276s-0.283-0.098-0.432-0.098h-26zM26 25c-0.212 0-0.423-0.017-0.632-0.050l1.734-7.796c0.925 0.268 1.722 0.86 2.246 1.669s0.738 1.778 0.604 2.732c-0.134 0.954-0.607 1.827-1.333 2.46s-1.656 0.983-2.619 0.985zM5.28 27.65l-3.034-13.65h23.508l-3.034 13.65c-0.148 0.666-0.519 1.262-1.051 1.69s-1.195 0.66-1.877 0.66h-11.584c-0.683-0-1.345-0.233-1.877-0.66s-0.903-1.023-1.051-1.69z"></path>
<path d="M8.8 1.6l-0.006 0.008-0.028 0.038c-0.146 0.2-0.282 0.407-0.408 0.62-0.107 0.171-0.202 0.349-0.282 0.534-0.052 0.12-0.068 0.184-0.074 0.206v0.008c0.023 0.177 0.085 0.346 0.182 0.496 0.15 0.266 0.356 0.544 0.616 0.89l0.020 0.024c0.236 0.316 0.52 0.694 0.74 1.086 0.224 0.4 0.44 0.91 0.44 1.49 0 0.376-0.13 0.736-0.238 0.988-0.116 0.268-0.251 0.527-0.404 0.776-0.157 0.262-0.326 0.517-0.506 0.764l-0.036 0.050-0.010 0.016-0.004 0.004c-0.159 0.212-0.396 0.353-0.658 0.391s-0.529-0.030-0.742-0.189-0.353-0.396-0.391-0.658c-0.038-0.263 0.030-0.529 0.189-0.742l0.006-0.008 0.028-0.038c0.146-0.2 0.282-0.407 0.408-0.62 0.107-0.171 0.202-0.349 0.282-0.534 0.052-0.12 0.068-0.184 0.074-0.206-0.021-0.179-0.083-0.352-0.18-0.504-0.186-0.31-0.392-0.608-0.618-0.89l-0.020-0.024c-0.27-0.345-0.517-0.708-0.74-1.086-0.272-0.451-0.424-0.964-0.44-1.49 0-0.376 0.13-0.736 0.238-0.988 0.118-0.276 0.268-0.548 0.404-0.776 0.159-0.261 0.328-0.516 0.506-0.764l0.050-0.070c0.159-0.212 0.396-0.353 0.658-0.391s0.529 0.030 0.742 0.189c0.212 0.159 0.353 0.396 0.391 0.658s-0.030 0.529-0.189 0.742zM14.8 1.6l-0.006 0.008-0.028 0.038c-0.146 0.2-0.282 0.407-0.408 0.62-0.107 0.171-0.202 0.349-0.282 0.534-0.052 0.12-0.068 0.184-0.074 0.206v0.008c0.023 0.177 0.085 0.346 0.182 0.496 0.15 0.266 0.356 0.544 0.616 0.89l0.020 0.024c0.236 0.316 0.52 0.694 0.74 1.086 0.224 0.4 0.44 0.91 0.44 1.49 0 0.376-0.13 0.736-0.238 0.988-0.116 0.268-0.251 0.527-0.404 0.776-0.157 0.262-0.326 0.517-0.506 0.764l-0.036 0.050-0.010 0.016-0.004 0.004c-0.159 0.212-0.396 0.353-0.658 0.391s-0.529-0.030-0.742-0.189-0.353-0.396-0.391-0.658c-0.038-0.263 0.030-0.529 0.189-0.742l0.006-0.008 0.028-0.038c0.146-0.2 0.282-0.407 0.408-0.62 0.107-0.171 0.202-0.349 0.282-0.534 0.052-0.12 0.068-0.184 0.074-0.206-0.021-0.179-0.083-0.352-0.18-0.504-0.186-0.31-0.392-0.608-0.618-0.89l-0.020-0.024c-0.27-0.345-0.517-0.708-0.74-1.086-0.272-0.451-0.424-0.964-0.44-1.49 0-0.376 0.13-0.736 0.238-0.988 0.118-0.276 0.268-0.548 0.404-0.776 0.159-0.261 0.328-0.516 0.506-0.764l0.050-0.070c0.159-0.212 0.396-0.353 0.658-0.391s0.529 0.030 0.742 0.189 0.353 0.396 0.391 0.658c0.038 0.263-0.030 0.529-0.189 0.742zM20.8 1.6l-0.006 0.008-0.028 0.038c-0.145 0.2-0.282 0.407-0.408 0.62-0.107 0.171-0.202 0.349-0.282 0.534-0.052 0.12-0.068 0.184-0.074 0.206v0.008c0.023 0.177 0.085 0.346 0.182 0.496 0.15 0.266 0.356 0.544 0.616 0.89l0.020 0.024c0.236 0.316 0.52 0.694 0.74 1.086 0.224 0.4 0.44 0.91 0.44 1.49 0 0.376-0.13 0.736-0.238 0.988-0.116 0.268-0.251 0.527-0.404 0.776-0.156 0.262-0.324 0.517-0.504 0.764l-0.038 0.050-0.010 0.016-0.004 0.004c-0.159 0.212-0.396 0.353-0.658 0.391s-0.529-0.030-0.742-0.189-0.353-0.396-0.391-0.658c-0.038-0.263 0.030-0.529 0.189-0.742l0.006-0.008 0.028-0.038c0.145-0.2 0.282-0.407 0.408-0.62 0.107-0.171 0.202-0.349 0.282-0.534 0.052-0.12 0.068-0.184 0.074-0.206-0.021-0.179-0.083-0.352-0.18-0.504-0.186-0.31-0.392-0.608-0.618-0.89l-0.020-0.024c-0.27-0.345-0.517-0.708-0.74-1.086-0.272-0.451-0.424-0.964-0.44-1.49 0-0.376 0.13-0.736 0.238-0.988 0.118-0.276 0.268-0.548 0.404-0.776 0.159-0.261 0.328-0.516 0.506-0.764l0.050-0.070c0.159-0.212 0.396-0.353 0.658-0.391s0.529 0.030 0.742 0.189 0.353 0.396 0.391 0.658c0.038 0.263-0.030 0.529-0.189 0.742z"></path>
</symbol>
<symbol id="icon-ion_water-outline" viewBox="0 0 32 32">
<path stroke-linejoin="miter" stroke-linecap="butt" stroke-miterlimit="10" stroke-width="2" d="M25 20c0 5.523-3.477 9-9 9s-9-3.477-9-9c0-5.927 6.452-13.928 8.431-16.242 0.070-0.082 0.158-0.148 0.256-0.194s0.205-0.069 0.314-0.069c0.108 0 0.215 0.023 0.314 0.069s0.186 0.111 0.256 0.194c1.978 2.314 8.43 10.316 8.43 16.242z"></path>
<path stroke-linejoin="round" stroke-linecap="round" stroke-miterlimit="4" stroke-width="2" d="M21.5 20.5c0 1.194-0.474 2.338-1.318 3.182s-1.988 1.318-3.182 1.318"></path>
</symbol>
<symbol id="icon-cup-hot" viewBox="0 0 32 32">
<path d="M1 12c-0.15 0-0.297 0.034-0.432 0.098s-0.254 0.159-0.347 0.276c-0.094 0.117-0.16 0.253-0.194 0.399s-0.035 0.297-0.003 0.443l3.304 14.868c0.247 1.11 0.865 2.104 1.752 2.816s1.991 1.1 3.128 1.1h11.584c1.138-0 2.241-0.388 3.128-1.1s1.505-1.705 1.752-2.816l0.262-1.18c1.53 0.286 3.111-0.033 4.41-0.891s2.213-2.186 2.551-3.706c0.337-1.519 0.071-3.11-0.742-4.437s-2.111-2.285-3.618-2.674l0.442-1.98c0.032-0.146 0.031-0.298-0.003-0.443s-0.1-0.282-0.194-0.399c-0.094-0.117-0.212-0.211-0.347-0.276s-0.283-0.098-0.432-0.098h-26zM26 25c-0.212 0-0.423-0.017-0.632-0.050l1.734-7.796c0.925 0.268 1.722 0.86 2.246 1.669s0.738 1.778 0.604 2.732c-0.134 0.954-0.607 1.827-1.333 2.46s-1.656 0.983-2.619 0.985zM5.28 27.65l-3.034-13.65h23.508l-3.034 13.65c-0.148 0.666-0.519 1.262-1.051 1.69s-1.195 0.66-1.877 0.66h-11.584c-0.683-0-1.345-0.233-1.877-0.66s-0.903-1.023-1.051-1.69z"></path>
<path d="M8.8 1.6l-0.006 0.008-0.028 0.038c-0.146 0.2-0.282 0.407-0.408 0.62-0.107 0.171-0.202 0.349-0.282 0.534-0.052 0.12-0.068 0.184-0.074 0.206v0.008c0.023 0.177 0.085 0.346 0.182 0.496 0.15 0.266 0.356 0.544 0.616 0.89l0.020 0.024c0.236 0.316 0.52 0.694 0.74 1.086 0.224 0.4 0.44 0.91 0.44 1.49 0 0.376-0.13 0.736-0.238 0.988-0.116 0.268-0.251 0.527-0.404 0.776-0.157 0.262-0.326 0.517-0.506 0.764l-0.036 0.050-0.010 0.016-0.004 0.004c-0.159 0.212-0.396 0.353-0.658 0.391s-0.529-0.030-0.742-0.189-0.353-0.396-0.391-0.658c-0.038-0.263 0.030-0.529 0.189-0.742l0.006-0.008 0.028-0.038c0.146-0.2 0.282-0.407 0.408-0.62 0.107-0.171 0.202-0.349 0.282-0.534 0.052-0.12 0.068-0.184 0.074-0.206-0.021-0.179-0.083-0.352-0.18-0.504-0.186-0.31-0.392-0.608-0.618-0.89l-0.020-0.024c-0.27-0.345-0.517-0.708-0.74-1.086-0.272-0.451-0.424-0.964-0.44-1.49 0-0.376 0.13-0.736 0.238-0.988 0.118-0.276 0.268-0.548 0.404-0.776 0.159-0.261 0.328-0.516 0.506-0.764l0.050-0.070c0.159-0.212 0.396-0.353 0.658-0.391s0.529 0.030 0.742 0.189c0.212 0.159 0.353 0.396 0.391 0.658s-0.030 0.529-0.189 0.742zM14.8 1.6l-0.006 0.008-0.028 0.038c-0.146 0.2-0.282 0.407-0.408 0.62-0.107 0.171-0.202 0.349-0.282 0.534-0.052 0.12-0.068 0.184-0.074 0.206v0.008c0.023 0.177 0.085 0.346 0.182 0.496 0.15 0.266 0.356 0.544 0.616 0.89l0.020 0.024c0.236 0.316 0.52 0.694 0.74 1.086 0.224 0.4 0.44 0.91 0.44 1.49 0 0.376-0.13 0.736-0.238 0.988-0.116 0.268-0.251 0.527-0.404 0.776-0.157 0.262-0.326 0.517-0.506 0.764l-0.036 0.050-0.010 0.016-0.004 0.004c-0.159 0.212-0.396 0.353-0.658 0.391s-0.529-0.030-0.742-0.189-0.353-0.396-0.391-0.658c-0.038-0.263 0.030-0.529 0.189-0.742l0.006-0.008 0.028-0.038c0.146-0.2 0.282-0.407 0.408-0.62 0.107-0.171 0.202-0.349 0.282-0.534 0.052-0.12 0.068-0.184 0.074-0.206-0.021-0.179-0.083-0.352-0.18-0.504-0.186-0.31-0.392-0.608-0.618-0.89l-0.020-0.024c-0.27-0.345-0.517-0.708-0.74-1.086-0.272-0.451-0.424-0.964-0.44-1.49 0-0.376 0.13-0.736 0.238-0.988 0.118-0.276 0.268-0.548 0.404-0.776 0.159-0.261 0.328-0.516 0.506-0.764l0.050-0.070c0.159-0.212 0.396-0.353 0.658-0.391s0.529 0.030 0.742 0.189 0.353 0.396 0.391 0.658c0.038 0.263-0.030 0.529-0.189 0.742zM20.8 1.6l-0.006 0.008-0.028 0.038c-0.145 0.2-0.282 0.407-0.408 0.62-0.107 0.171-0.202 0.349-0.282 0.534-0.052 0.12-0.068 0.184-0.074 0.206v0.008c0.023 0.177 0.085 0.346 0.182 0.496 0.15 0.266 0.356 0.544 0.616 0.89l0.020 0.024c0.236 0.316 0.52 0.694 0.74 1.086 0.224 0.4 0.44 0.91 0.44 1.49 0 0.376-0.13 0.736-0.238 0.988-0.116 0.268-0.251 0.527-0.404 0.776-0.156 0.262-0.324 0.517-0.504 0.764l-0.038 0.050-0.010 0.016-0.004 0.004c-0.159 0.212-0.396 0.353-0.658 0.391s-0.529-0.030-0.742-0.189-0.353-0.396-0.391-0.658c-0.038-0.263 0.030-0.529 0.189-0.742l0.006-0.008 0.028-0.038c0.145-0.2 0.282-0.407 0.408-0.62 0.107-0.171 0.202-0.349 0.282-0.534 0.052-0.12 0.068-0.184 0.074-0.206-0.021-0.179-0.083-0.352-0.18-0.504-0.186-0.31-0.392-0.608-0.618-0.89l-0.020-0.024c-0.27-0.345-0.517-0.708-0.74-1.086-0.272-0.451-0.424-0.964-0.44-1.49 0-0.376 0.13-0.736 0.238-0.988 0.118-0.276 0.268-0.548 0.404-0.776 0.159-0.261 0.328-0.516 0.506-0.764l0.050-0.070c0.159-0.212 0.396-0.353 0.658-0.391s0.529 0.030 0.742 0.189 0.353 0.396 0.391 0.658c0.038 0.263-0.030 0.529-0.189 0.742z"></path>
</symbol>
<symbol id="icon-Automatic" viewBox="0 0 104 32">
<path d="M16 0h72c8.837 0 16 7.163 16 16s-7.163 16-16 16h-72c-8.837 0-16-7.163-16-16s7.163-16 16-16z"></path>
<path d="M18.545 11.909c0-0.362 0.144-0.709 0.399-0.964s0.603-0.399 0.964-0.399h0.909c0.362 0 0.709 0.144 0.964 0.399s0.399 0.603 0.399 0.964v0.909c0 0.362-0.144 0.709-0.399 0.964s-0.603 0.399-0.964 0.399v0.909h5c0.121 0 0.236 0.048 0.321 0.133s0.133 0.201 0.133 0.321v0.909c0 0.121-0.048 0.236-0.133 0.321s-0.201 0.133-0.321 0.133-0.236-0.048-0.321-0.133c-0.085-0.085-0.133-0.201-0.133-0.321v-0.455h-4.545v0.455c0 0.121-0.048 0.236-0.133 0.321s-0.201 0.133-0.321 0.133-0.236-0.048-0.321-0.133c-0.085-0.085-0.133-0.201-0.133-0.321v-0.455h-4.545v0.455c0 0.121-0.048 0.236-0.133 0.321s-0.201 0.133-0.321 0.133-0.236-0.048-0.321-0.133c-0.085-0.085-0.133-0.201-0.133-0.321v-0.909c0-0.121 0.048-0.236 0.133-0.321s0.201-0.133 0.321-0.133h5v-0.909c-0.362 0-0.709-0.144-0.964-0.399s-0.399-0.603-0.399-0.964v-0.909zM20.818 13.273c0.121 0 0.236-0.048 0.321-0.133s0.133-0.201 0.133-0.321v-0.909c0-0.121-0.048-0.236-0.133-0.321s-0.201-0.133-0.321-0.133h-0.909c-0.121 0-0.236 0.048-0.321 0.133s-0.133 0.201-0.133 0.321v0.909c0 0.121 0.048 0.236 0.133 0.321s0.201 0.133 0.321 0.133h0.909zM13.091 19.182c0-0.362 0.144-0.709 0.399-0.964s0.603-0.399 0.964-0.399h0.909c0.362 0 0.708 0.144 0.964 0.399s0.399 0.603 0.399 0.964v0.909c0 0.362-0.144 0.709-0.399 0.964s-0.603 0.399-0.964 0.399h-0.909c-0.362 0-0.709-0.144-0.964-0.399s-0.399-0.603-0.399-0.964v-0.909zM14.455 18.727c-0.121 0-0.236 0.048-0.321 0.133s-0.133 0.201-0.133 0.321v0.909c0 0.121 0.048 0.236 0.133 0.321s0.201 0.133 0.321 0.133h0.909c0.121 0 0.236-0.048 0.321-0.133s0.133-0.201 0.133-0.321v-0.909c0-0.121-0.048-0.236-0.133-0.321s-0.201-0.133-0.321-0.133h-0.909zM18.545 19.182c0-0.362 0.144-0.709 0.399-0.964s0.603-0.399 0.964-0.399h0.909c0.362 0 0.709 0.144 0.964 0.399s0.399 0.603 0.399 0.964v0.909c0 0.362-0.144 0.709-0.399 0.964s-0.603 0.399-0.964 0.399h-0.909c-0.362 0-0.709-0.144-0.964-0.399s-0.399-0.603-0.399-0.964v-0.909zM19.909 18.727c-0.121 0-0.236 0.048-0.321 0.133s-0.133 0.201-0.133 0.321v0.909c0 0.121 0.048 0.236 0.133 0.321s0.201 0.133 0.321 0.133h0.909c0.121 0 0.236-0.048 0.321-0.133s0.133-0.201 0.133-0.321v-0.909c0-0.121-0.048-0.236-0.133-0.321s-0.201-0.133-0.321-0.133h-0.909zM24 19.182c0-0.362 0.144-0.709 0.399-0.964s0.603-0.399 0.964-0.399h0.909c0.362 0 0.709 0.144 0.964 0.399s0.399 0.603 0.399 0.964v0.909c0 0.362-0.144 0.709-0.399 0.964s-0.603 0.399-0.964 0.399h-0.909c-0.362 0-0.709-0.144-0.964-0.399s-0.399-0.603-0.399-0.964v-0.909zM25.364 18.727c-0.121 0-0.236 0.048-0.321 0.133s-0.133 0.201-0.133 0.321v0.909c0 0.121 0.048 0.236 0.133 0.321s0.201 0.133 0.321 0.133h0.909c0.121 0 0.236-0.048 0.321-0.133s0.133-0.201 0.133-0.321v-0.909c0-0.121-0.048-0.236-0.133-0.321s-0.201-0.133-0.321-0.133h-0.909z"></path>
<path d="M35.287 20.364h-1.355l3.045-8.463h1.475l3.045 8.463h-1.355l-2.393-6.926h-0.066l-2.397 6.926zM35.514 17.050h4.397v1.074h-4.397v-1.074zM46.641 17.731v-3.715h1.24v6.347h-1.215v-1.099h-0.066c-0.146 0.339-0.38 0.621-0.702 0.847-0.32 0.223-0.718 0.335-1.194 0.335-0.408 0-0.769-0.090-1.083-0.269-0.311-0.182-0.556-0.45-0.736-0.806-0.176-0.355-0.264-0.795-0.264-1.318v-4.037h1.236v3.888c0 0.433 0.12 0.777 0.36 1.033s0.551 0.384 0.934 0.384c0.231 0 0.461-0.058 0.69-0.174 0.231-0.116 0.423-0.291 0.574-0.525 0.154-0.234 0.23-0.532 0.227-0.893zM52.504 14.017v0.992h-3.467v-0.992h3.467zM49.966 12.496h1.236v6.004c0 0.24 0.036 0.42 0.107 0.541 0.072 0.118 0.164 0.2 0.277 0.244 0.116 0.041 0.241 0.062 0.376 0.062 0.099 0 0.186-0.007 0.26-0.021s0.132-0.025 0.174-0.033l0.223 1.021c-0.072 0.028-0.174 0.055-0.306 0.083-0.132 0.030-0.298 0.047-0.496 0.050-0.325 0.006-0.628-0.052-0.909-0.174s-0.508-0.308-0.682-0.562c-0.174-0.253-0.26-0.572-0.26-0.955v-6.26zM56.476 20.492c-0.595 0-1.114-0.136-1.558-0.409s-0.788-0.654-1.033-1.145c-0.245-0.49-0.368-1.063-0.368-1.719 0-0.658 0.123-1.234 0.368-1.727s0.59-0.876 1.033-1.149c0.444-0.273 0.963-0.409 1.558-0.409s1.114 0.136 1.558 0.409c0.444 0.273 0.788 0.656 1.033 1.149s0.368 1.069 0.368 1.727c0 0.656-0.123 1.229-0.368 1.719s-0.59 0.872-1.033 1.145c-0.444 0.273-0.963 0.409-1.558 0.409zM56.48 19.455c0.386 0 0.705-0.102 0.959-0.306s0.441-0.475 0.562-0.814c0.124-0.339 0.186-0.712 0.186-1.12 0-0.405-0.062-0.777-0.186-1.116-0.121-0.342-0.309-0.616-0.562-0.822s-0.573-0.31-0.959-0.31c-0.388 0-0.711 0.103-0.967 0.31-0.253 0.207-0.442 0.481-0.566 0.822-0.121 0.339-0.182 0.711-0.182 1.116 0 0.408 0.061 0.781 0.182 1.12 0.124 0.339 0.313 0.61 0.566 0.814 0.256 0.204 0.578 0.306 0.967 0.306zM60.814 20.364v-6.347h1.186v1.033h0.078c0.132-0.35 0.349-0.623 0.649-0.818 0.3-0.198 0.66-0.298 1.078-0.298 0.424 0 0.78 0.099 1.066 0.298 0.289 0.198 0.503 0.471 0.64 0.818h0.066c0.152-0.339 0.393-0.609 0.723-0.81 0.331-0.204 0.725-0.306 1.182-0.306 0.576 0 1.045 0.18 1.409 0.541 0.366 0.361 0.55 0.905 0.55 1.632v4.256h-1.236v-4.14c0-0.43-0.117-0.741-0.351-0.934s-0.514-0.289-0.839-0.289c-0.402 0-0.715 0.124-0.938 0.372-0.223 0.245-0.335 0.561-0.335 0.946v4.045h-1.231v-4.219c0-0.344-0.107-0.621-0.322-0.831s-0.495-0.314-0.839-0.314c-0.234 0-0.45 0.062-0.649 0.186-0.196 0.121-0.354 0.291-0.475 0.508-0.118 0.218-0.178 0.47-0.178 0.756v3.913h-1.236zM72.945 20.504c-0.402 0-0.766-0.074-1.091-0.223-0.325-0.152-0.583-0.371-0.773-0.657-0.187-0.287-0.281-0.638-0.281-1.054 0-0.358 0.069-0.653 0.207-0.884s0.324-0.415 0.558-0.55c0.234-0.135 0.496-0.237 0.785-0.306s0.584-0.121 0.885-0.157c0.38-0.044 0.689-0.080 0.925-0.107 0.237-0.030 0.409-0.078 0.517-0.145s0.161-0.174 0.161-0.322v-0.029c0-0.361-0.102-0.64-0.305-0.839-0.201-0.198-0.502-0.298-0.901-0.298-0.416 0-0.744 0.092-0.983 0.277-0.237 0.182-0.401 0.384-0.492 0.607l-1.161-0.264c0.138-0.386 0.339-0.697 0.603-0.934 0.267-0.24 0.574-0.413 0.922-0.521 0.347-0.11 0.712-0.165 1.095-0.165 0.254 0 0.522 0.030 0.806 0.091 0.287 0.058 0.554 0.165 0.802 0.322 0.25 0.157 0.456 0.382 0.615 0.674 0.16 0.289 0.24 0.665 0.24 1.128v4.215h-1.207v-0.868h-0.049c-0.080 0.16-0.2 0.317-0.36 0.471s-0.365 0.282-0.615 0.384c-0.251 0.102-0.551 0.153-0.901 0.153zM73.213 19.512c0.342 0 0.634-0.067 0.876-0.202 0.245-0.135 0.431-0.311 0.558-0.529 0.129-0.22 0.194-0.456 0.194-0.707v-0.818c-0.044 0.044-0.129 0.085-0.256 0.124-0.124 0.036-0.266 0.067-0.426 0.095-0.159 0.025-0.315 0.048-0.467 0.070-0.151 0.019-0.278 0.036-0.38 0.050-0.24 0.030-0.459 0.081-0.657 0.153-0.196 0.072-0.353 0.175-0.471 0.31-0.116 0.132-0.174 0.309-0.174 0.529 0 0.306 0.113 0.537 0.339 0.694 0.226 0.154 0.514 0.231 0.863 0.231zM80.685 14.017v0.992h-3.467v-0.992h3.467zM78.148 12.496h1.236v6.004c0 0.24 0.036 0.42 0.107 0.541 0.072 0.118 0.164 0.2 0.277 0.244 0.116 0.041 0.241 0.062 0.376 0.062 0.1 0 0.186-0.007 0.26-0.021s0.132-0.025 0.174-0.033l0.223 1.021c-0.072 0.028-0.174 0.055-0.306 0.083-0.132 0.030-0.297 0.047-0.496 0.050-0.325 0.006-0.628-0.052-0.909-0.174s-0.508-0.308-0.681-0.562c-0.174-0.253-0.26-0.572-0.26-0.955v-6.26zM82.052 20.364v-6.347h1.236v6.347h-1.236zM82.676 13.037c-0.215 0-0.4-0.072-0.554-0.215-0.151-0.146-0.227-0.32-0.227-0.521 0-0.204 0.076-0.377 0.227-0.521 0.154-0.146 0.339-0.219 0.554-0.219s0.398 0.073 0.549 0.219c0.154 0.143 0.232 0.317 0.232 0.521 0 0.201-0.078 0.375-0.232 0.521-0.151 0.143-0.335 0.215-0.549 0.215zM87.623 20.492c-0.614 0-1.143-0.139-1.587-0.417-0.441-0.281-0.78-0.668-1.016-1.161s-0.356-1.058-0.356-1.694c0-0.645 0.121-1.213 0.364-1.707 0.242-0.496 0.584-0.883 1.025-1.161s0.96-0.417 1.558-0.417c0.482 0 0.912 0.090 1.289 0.269 0.377 0.176 0.681 0.424 0.913 0.744 0.234 0.32 0.373 0.693 0.417 1.12h-1.202c-0.066-0.298-0.217-0.554-0.455-0.769-0.234-0.215-0.548-0.322-0.942-0.322-0.345 0-0.647 0.091-0.905 0.273-0.256 0.179-0.456 0.435-0.599 0.769-0.143 0.331-0.215 0.722-0.215 1.174 0 0.463 0.071 0.862 0.211 1.198s0.339 0.596 0.595 0.781c0.259 0.184 0.564 0.277 0.913 0.277 0.234 0 0.446-0.043 0.636-0.128 0.193-0.088 0.353-0.214 0.483-0.376 0.132-0.163 0.225-0.358 0.277-0.587h1.202c-0.044 0.41-0.177 0.777-0.401 1.099s-0.521 0.576-0.897 0.76c-0.372 0.184-0.808 0.277-1.31 0.277z"></path>
</symbol>
<symbol id="icon-Bathroom" viewBox="0 0 101 32">
<path d="M16 0h69.091c8.837 0 16 7.163 16 16s-7.163 16-16 16h-69.091c-8.837 0-16-7.163-16-16s7.163-16 16-16z"></path>
<path d="M16.727 22.136c0 0.135-0.040 0.267-0.115 0.379s-0.181 0.2-0.306 0.251c-0.125 0.052-0.262 0.065-0.394 0.039s-0.254-0.091-0.349-0.187c-0.095-0.095-0.16-0.217-0.187-0.349s-0.013-0.269 0.039-0.394c0.052-0.125 0.139-0.231 0.251-0.306s0.244-0.115 0.379-0.115c0.181 0 0.354 0.072 0.482 0.2s0.2 0.301 0.2 0.482zM17.864 19.636c-0.135 0-0.267 0.040-0.379 0.115s-0.2 0.181-0.251 0.306c-0.052 0.125-0.065 0.262-0.039 0.394s0.091 0.254 0.187 0.349c0.095 0.095 0.217 0.16 0.349 0.187s0.269 0.013 0.394-0.039c0.125-0.052 0.231-0.139 0.306-0.251s0.115-0.244 0.115-0.379c0-0.181-0.072-0.354-0.2-0.482s-0.301-0.2-0.482-0.2zM14.227 19.636c-0.135 0-0.267 0.040-0.379 0.115s-0.2 0.181-0.251 0.306c-0.052 0.125-0.065 0.262-0.039 0.394s0.091 0.254 0.187 0.349c0.095 0.095 0.217 0.16 0.349 0.187s0.269 0.013 0.394-0.039c0.125-0.052 0.231-0.139 0.306-0.251s0.115-0.244 0.115-0.379c0-0.181-0.072-0.354-0.2-0.482s-0.301-0.2-0.482-0.2zM16.045 17.818c-0.135 0-0.267 0.040-0.379 0.115s-0.2 0.181-0.251 0.306c-0.052 0.125-0.065 0.262-0.039 0.394s0.091 0.254 0.187 0.349c0.095 0.095 0.217 0.16 0.349 0.187s0.269 0.013 0.394-0.039c0.125-0.052 0.231-0.139 0.306-0.251s0.115-0.244 0.115-0.379c0-0.181-0.072-0.354-0.2-0.482s-0.301-0.2-0.482-0.2zM27.636 11c0 0.121-0.048 0.236-0.133 0.321s-0.201 0.133-0.321 0.133h-1.63l-1.582 1.583-1.231 7.204c-0.028 0.165-0.1 0.318-0.209 0.445s-0.251 0.22-0.41 0.271c-0.159 0.051-0.329 0.057-0.491 0.018s-0.31-0.123-0.428-0.241l-5.568-5.568c-0.118-0.118-0.202-0.267-0.241-0.429s-0.033-0.332 0.018-0.492c0.051-0.159 0.145-0.301 0.271-0.41s0.28-0.182 0.445-0.209l7.201-1.231 1.716-1.716c0.042-0.042 0.092-0.076 0.148-0.098s0.114-0.035 0.174-0.034h1.818c0.121 0 0.236 0.048 0.321 0.133s0.133 0.201 0.133 0.321zM22.989 13.374l-6.716 1.148 5.568 5.568 1.148-6.716z"></path>
<path d="M34.532 20.364v-8.463h3.099c0.601 0 1.098 0.099 1.492 0.298 0.394 0.196 0.689 0.461 0.884 0.798 0.196 0.333 0.293 0.709 0.293 1.128 0 0.353-0.065 0.65-0.194 0.893-0.129 0.24-0.303 0.432-0.521 0.579-0.215 0.143-0.452 0.248-0.711 0.314v0.083c0.281 0.014 0.555 0.105 0.822 0.273 0.27 0.165 0.493 0.401 0.669 0.707s0.264 0.678 0.264 1.116c0 0.433-0.102 0.821-0.306 1.165-0.201 0.342-0.512 0.613-0.934 0.814-0.422 0.198-0.96 0.298-1.616 0.298h-3.244zM35.809 19.269h1.843c0.612 0 1.050-0.118 1.314-0.355s0.397-0.533 0.397-0.888c0-0.267-0.068-0.512-0.202-0.736s-0.328-0.401-0.579-0.533c-0.248-0.132-0.543-0.198-0.884-0.198h-1.888v2.711zM35.809 15.562h1.711c0.286 0 0.544-0.055 0.773-0.165 0.231-0.11 0.415-0.264 0.55-0.463 0.138-0.201 0.207-0.438 0.207-0.711 0-0.35-0.123-0.643-0.368-0.88s-0.621-0.355-1.128-0.355h-1.744v2.574zM43.894 20.504c-0.402 0-0.766-0.074-1.091-0.223-0.325-0.152-0.583-0.371-0.773-0.657-0.187-0.287-0.281-0.638-0.281-1.054 0-0.358 0.069-0.653 0.207-0.884s0.324-0.415 0.558-0.55c0.234-0.135 0.496-0.237 0.785-0.306s0.584-0.121 0.884-0.157c0.38-0.044 0.689-0.080 0.926-0.107 0.237-0.030 0.409-0.078 0.517-0.145s0.161-0.174 0.161-0.322v-0.029c0-0.361-0.102-0.64-0.306-0.839-0.201-0.198-0.501-0.298-0.901-0.298-0.416 0-0.744 0.092-0.983 0.277-0.237 0.182-0.401 0.384-0.492 0.607l-1.161-0.264c0.138-0.386 0.339-0.697 0.603-0.934 0.267-0.24 0.574-0.413 0.922-0.521 0.347-0.11 0.712-0.165 1.095-0.165 0.253 0 0.522 0.030 0.806 0.091 0.286 0.058 0.554 0.165 0.802 0.322 0.251 0.157 0.456 0.382 0.616 0.674 0.16 0.289 0.24 0.665 0.24 1.128v4.215h-1.207v-0.868h-0.050c-0.080 0.16-0.2 0.317-0.359 0.471s-0.365 0.282-0.616 0.384c-0.251 0.102-0.551 0.153-0.901 0.153zM44.162 19.512c0.342 0 0.634-0.067 0.876-0.202 0.245-0.135 0.431-0.311 0.558-0.529 0.129-0.22 0.194-0.456 0.194-0.707v-0.818c-0.044 0.044-0.129 0.085-0.256 0.124-0.124 0.036-0.266 0.067-0.426 0.095-0.16 0.025-0.315 0.048-0.467 0.070-0.151 0.019-0.278 0.036-0.38 0.050-0.24 0.030-0.459 0.081-0.657 0.153-0.196 0.072-0.353 0.175-0.471 0.31-0.116 0.132-0.174 0.309-0.174 0.529 0 0.306 0.113 0.537 0.339 0.694 0.226 0.154 0.514 0.231 0.864 0.231zM51.634 14.017v0.992h-3.467v-0.992h3.467zM49.097 12.496h1.236v6.004c0 0.24 0.036 0.42 0.107 0.541 0.072 0.118 0.164 0.2 0.277 0.244 0.116 0.041 0.241 0.062 0.376 0.062 0.099 0 0.186-0.007 0.26-0.021s0.132-0.025 0.174-0.033l0.223 1.021c-0.072 0.028-0.174 0.055-0.306 0.083-0.132 0.030-0.298 0.047-0.496 0.050-0.325 0.006-0.628-0.052-0.909-0.174s-0.508-0.308-0.682-0.562c-0.174-0.253-0.26-0.572-0.26-0.955v-6.26zM54.373 16.595v3.769h-1.236v-8.463h1.219v3.149h0.078c0.149-0.342 0.376-0.613 0.682-0.814s0.705-0.302 1.198-0.302c0.435 0 0.816 0.090 1.141 0.269 0.328 0.179 0.581 0.446 0.76 0.802 0.182 0.353 0.273 0.793 0.273 1.322v4.037h-1.236v-3.888c0-0.466-0.12-0.826-0.359-1.083-0.24-0.259-0.573-0.388-1-0.388-0.292 0-0.554 0.062-0.785 0.186-0.229 0.124-0.409 0.306-0.541 0.545-0.129 0.237-0.194 0.523-0.194 0.86zM60.137 20.364v-6.347h1.194v1.008h0.066c0.116-0.342 0.32-0.61 0.612-0.806 0.295-0.198 0.628-0.298 1-0.298 0.077 0 0.168 0.003 0.273 0.008 0.107 0.006 0.191 0.012 0.252 0.021v1.182c-0.050-0.014-0.138-0.029-0.264-0.045-0.127-0.019-0.253-0.029-0.38-0.029-0.292 0-0.552 0.062-0.781 0.186-0.226 0.121-0.405 0.291-0.537 0.508-0.132 0.215-0.198 0.46-0.198 0.736v3.876h-1.236zM67.050 20.492c-0.595 0-1.114-0.136-1.558-0.409s-0.788-0.654-1.033-1.145c-0.245-0.49-0.368-1.063-0.368-1.719 0-0.658 0.123-1.234 0.368-1.727s0.59-0.876 1.033-1.149c0.444-0.273 0.963-0.409 1.558-0.409s1.114 0.136 1.558 0.409c0.444 0.273 0.788 0.656 1.033 1.149s0.368 1.069 0.368 1.727c0 0.656-0.123 1.229-0.368 1.719s-0.59 0.872-1.033 1.145c-0.444 0.273-0.963 0.409-1.558 0.409zM67.054 19.455c0.386 0 0.705-0.102 0.959-0.306s0.441-0.475 0.562-0.814c0.124-0.339 0.186-0.712 0.186-1.12 0-0.405-0.062-0.777-0.186-1.116-0.121-0.342-0.309-0.616-0.562-0.822s-0.573-0.31-0.959-0.31c-0.388 0-0.711 0.103-0.967 0.31-0.253 0.207-0.442 0.481-0.566 0.822-0.121 0.339-0.182 0.711-0.182 1.116 0 0.408 0.061 0.781 0.182 1.12 0.124 0.339 0.313 0.61 0.566 0.814 0.256 0.204 0.579 0.306 0.967 0.306zM74.061 20.492c-0.595 0-1.114-0.136-1.558-0.409s-0.788-0.654-1.033-1.145c-0.245-0.49-0.368-1.063-0.368-1.719 0-0.658 0.123-1.234 0.368-1.727s0.59-0.876 1.033-1.149c0.444-0.273 0.963-0.409 1.558-0.409s1.114 0.136 1.558 0.409c0.444 0.273 0.788 0.656 1.033 1.149s0.368 1.069 0.368 1.727c0 0.656-0.123 1.229-0.368 1.719s-0.589 0.872-1.033 1.145-0.963 0.409-1.558 0.409zM74.065 19.455c0.386 0 0.705-0.102 0.959-0.306s0.441-0.475 0.561-0.814c0.124-0.339 0.186-0.712 0.186-1.12 0-0.405-0.062-0.777-0.186-1.116-0.121-0.342-0.308-0.616-0.561-0.822s-0.573-0.31-0.959-0.31c-0.388 0-0.711 0.103-0.967 0.31-0.254 0.207-0.442 0.481-0.566 0.822-0.121 0.339-0.182 0.711-0.182 1.116 0 0.408 0.061 0.781 0.182 1.12 0.124 0.339 0.312 0.61 0.566 0.814 0.256 0.204 0.578 0.306 0.967 0.306zM78.399 20.364v-6.347h1.186v1.033h0.079c0.132-0.35 0.348-0.623 0.649-0.818 0.3-0.198 0.66-0.298 1.079-0.298 0.424 0 0.78 0.099 1.066 0.298 0.289 0.198 0.503 0.471 0.641 0.818h0.065c0.152-0.339 0.393-0.609 0.724-0.81 0.33-0.204 0.724-0.306 1.182-0.306 0.575 0 1.045 0.18 1.409 0.541 0.367 0.361 0.55 0.905 0.55 1.632v4.256h-1.236v-4.14c0-0.43-0.117-0.741-0.351-0.934s-0.513-0.289-0.839-0.289c-0.402 0-0.715 0.124-0.938 0.372-0.223 0.245-0.335 0.561-0.335 0.946v4.045h-1.231v-4.219c0-0.344-0.108-0.621-0.323-0.831s-0.495-0.314-0.839-0.314c-0.234 0-0.45 0.062-0.649 0.186-0.196 0.121-0.354 0.291-0.476 0.508-0.118 0.218-0.177 0.47-0.177 0.756v3.913h-1.236z"></path>
</symbol>
<symbol id="icon-bi_grid" viewBox="0 0 32 32">
<path d="M2 5c0-0.796 0.316-1.559 0.879-2.121s1.326-0.879 2.121-0.879h6c0.796 0 1.559 0.316 2.121 0.879s0.879 1.326 0.879 2.121v6c0 0.796-0.316 1.559-0.879 2.121s-1.326 0.879-2.121 0.879h-6c-0.796 0-1.559-0.316-2.121-0.879s-0.879-1.326-0.879-2.121v-6zM5 4c-0.265 0-0.52 0.105-0.707 0.293s-0.293 0.442-0.293 0.707v6c0 0.265 0.105 0.52 0.293 0.707s0.442 0.293 0.707 0.293h6c0.265 0 0.52-0.105 0.707-0.293s0.293-0.442 0.293-0.707v-6c0-0.265-0.105-0.52-0.293-0.707s-0.442-0.293-0.707-0.293h-6zM18 5c0-0.796 0.316-1.559 0.879-2.121s1.326-0.879 2.121-0.879h6c0.796 0 1.559 0.316 2.121 0.879s0.879 1.326 0.879 2.121v6c0 0.796-0.316 1.559-0.879 2.121s-1.326 0.879-2.121 0.879h-6c-0.796 0-1.559-0.316-2.121-0.879s-0.879-1.326-0.879-2.121v-6zM21 4c-0.265 0-0.52 0.105-0.707 0.293s-0.293 0.442-0.293 0.707v6c0 0.265 0.105 0.52 0.293 0.707s0.442 0.293 0.707 0.293h6c0.265 0 0.52-0.105 0.707-0.293s0.293-0.442 0.293-0.707v-6c0-0.265-0.105-0.52-0.293-0.707s-0.442-0.293-0.707-0.293h-6zM2 21c0-0.796 0.316-1.559 0.879-2.121s1.326-0.879 2.121-0.879h6c0.796 0 1.559 0.316 2.121 0.879s0.879 1.326 0.879 2.121v6c0 0.796-0.316 1.559-0.879 2.121s-1.326 0.879-2.121 0.879h-6c-0.796 0-1.559-0.316-2.121-0.879s-0.879-1.326-0.879-2.121v-6zM5 20c-0.265 0-0.52 0.105-0.707 0.293s-0.293 0.442-0.293 0.707v6c0 0.265 0.105 0.52 0.293 0.707s0.442 0.293 0.707 0.293h6c0.265 0 0.52-0.105 0.707-0.293s0.293-0.442 0.293-0.707v-6c0-0.265-0.105-0.52-0.293-0.707s-0.442-0.293-0.707-0.293h-6zM18 21c0-0.796 0.316-1.559 0.879-2.121s1.326-0.879 2.121-0.879h6c0.796 0 1.559 0.316 2.121 0.879s0.879 1.326 0.879 2.121v6c0 0.796-0.316 1.559-0.879 2.121s-1.326 0.879-2.121 0.879h-6c-0.796 0-1.559-0.316-2.121-0.879s-0.879-1.326-0.879-2.121v-6zM21 20c-0.265 0-0.52 0.105-0.707 0.293s-0.293 0.442-0.293 0.707v6c0 0.265 0.105 0.52 0.293 0.707s0.442 0.293 0.707 0.293h6c0.265 0 0.52-0.105 0.707-0.293s0.293-0.442 0.293-0.707v-6c0-0.265-0.105-0.52-0.293-0.707s-0.442-0.293-0.707-0.293h-6z"></path>
</symbol>
<symbol id="icon-bi_grid-1x2" viewBox="0 0 32 32">
<path d="M12 2h-10v28h10v-28zM30 2h-10v10h10v-10zM30 20v10h-10v-10h10zM0 2c0-0.53 0.211-1.039 0.586-1.414s0.884-0.586 1.414-0.586h10c0.53 0 1.039 0.211 1.414 0.586s0.586 0.884 0.586 1.414v28c0 0.53-0.211 1.039-0.586 1.414s-0.884 0.586-1.414 0.586h-10c-0.53 0-1.039-0.211-1.414-0.586s-0.586-0.884-0.586-1.414v-28zM18 2c0-0.53 0.211-1.039 0.586-1.414s0.884-0.586 1.414-0.586h10c0.53 0 1.039 0.211 1.414 0.586s0.586 0.884 0.586 1.414v10c0 0.53-0.211 1.039-0.586 1.414s-0.884 0.586-1.414 0.586h-10c-0.53 0-1.039-0.211-1.414-0.586s-0.586-0.884-0.586-1.414v-10zM20 18c-0.53 0-1.039 0.211-1.414 0.586s-0.586 0.884-0.586 1.414v10c0 0.53 0.211 1.039 0.586 1.414s0.884 0.586 1.414 0.586h10c0.53 0 1.039-0.211 1.414-0.586s0.586-0.884 0.586-1.414v-10c0-0.53-0.211-1.039-0.586-1.414s-0.884-0.586-1.414-0.586h-10z"></path>
</symbol>
<symbol id="icon-bi_grid-3x3-gap" viewBox="0 0 32 32">
<path d="M8 4v4h-4v-4h4zM10 28v-4c0-0.53-0.211-1.039-0.586-1.414s-0.884-0.586-1.414-0.586h-4c-0.53 0-1.039 0.211-1.414 0.586s-0.586 0.884-0.586 1.414v4c0 0.53 0.211 1.039 0.586 1.414s0.884 0.586 1.414 0.586h4c0.53 0 1.039-0.211 1.414-0.586s0.586-0.884 0.586-1.414zM10 18v-4c0-0.53-0.211-1.039-0.586-1.414s-0.884-0.586-1.414-0.586h-4c-0.53 0-1.039 0.211-1.414 0.586s-0.586 0.884-0.586 1.414v4c0 0.53 0.211 1.039 0.586 1.414s0.884 0.586 1.414 0.586h4c0.53 0 1.039-0.211 1.414-0.586s0.586-0.884 0.586-1.414zM10 8v-4c0-0.53-0.211-1.039-0.586-1.414s-0.884-0.586-1.414-0.586h-4c-0.53 0-1.039 0.211-1.414 0.586s-0.586 0.884-0.586 1.414v4c0 0.53 0.211 1.039 0.586 1.414s0.884 0.586 1.414 0.586h4c0.53 0 1.039-0.211 1.414-0.586s0.586-0.884 0.586-1.414zM20 28v-4c0-0.53-0.211-1.039-0.586-1.414s-0.884-0.586-1.414-0.586h-4c-0.53 0-1.039 0.211-1.414 0.586s-0.586 0.884-0.586 1.414v4c0 0.53 0.211 1.039 0.586 1.414s0.884 0.586 1.414 0.586h4c0.53 0 1.039-0.211 1.414-0.586s0.586-0.884 0.586-1.414zM20 18v-4c0-0.53-0.211-1.039-0.586-1.414s-0.884-0.586-1.414-0.586h-4c-0.53 0-1.039 0.211-1.414 0.586s-0.586 0.884-0.586 1.414v4c0 0.53 0.211 1.039 0.586 1.414s0.884 0.586 1.414 0.586h4c0.53 0 1.039-0.211 1.414-0.586s0.586-0.884 0.586-1.414zM20 8v-4c0-0.53-0.211-1.039-0.586-1.414s-0.884-0.586-1.414-0.586h-4c-0.53 0-1.039 0.211-1.414 0.586s-0.586 0.884-0.586 1.414v4c0 0.53 0.211 1.039 0.586 1.414s0.884 0.586 1.414 0.586h4c0.53 0 1.039-0.211 1.414-0.586s0.586-0.884 0.586-1.414zM18 4v4h-4v-4h4zM28 4v4h-4v-4h4zM8 14v4h-4v-4h4zM18 14v4h-4v-4h4zM28 14h-4v4h4v-4zM8 24v4h-4v-4h4zM18 24v4h-4v-4h4zM28 24v4h-4v-4h4zM24 2c-0.53 0-1.039 0.211-1.414 0.586s-0.586 0.884-0.586 1.414v4c0 0.53 0.211 1.039 0.586 1.414s0.884 0.586 1.414 0.586h4c0.53 0 1.039-0.211 1.414-0.586s0.586-0.884 0.586-1.414v-4c0-0.53-0.211-1.039-0.586-1.414s-0.884-0.586-1.414-0.586h-4zM22 14c0-0.53 0.211-1.039 0.586-1.414s0.884-0.586 1.414-0.586h4c0.53 0 1.039 0.211 1.414 0.586s0.586 0.884 0.586 1.414v4c0 0.53-0.211 1.039-0.586 1.414s-0.884 0.586-1.414 0.586h-4c-0.53 0-1.039-0.211-1.414-0.586s-0.586-0.884-0.586-1.414v-4zM24 22c-0.53 0-1.039 0.211-1.414 0.586s-0.586 0.884-0.586 1.414v4c0 0.53 0.211 1.039 0.586 1.414s0.884 0.586 1.414 0.586h4c0.53 0 1.039-0.211 1.414-0.586s0.586-0.884 0.586-1.414v-4c0-0.53-0.211-1.039-0.586-1.414s-0.884-0.586-1.414-0.586h-4z"></path>
</symbol>
<symbol id="icon-ui-radios" viewBox="0 0 32 32">
<path d="M14 5c0-0.265 0.105-0.52 0.293-0.707s0.442-0.293 0.707-0.293h14c0.265 0 0.52 0.105 0.707 0.293s0.293 0.442 0.293 0.707v2c0 0.265-0.105 0.52-0.293 0.707s-0.442 0.293-0.707 0.293h-14c-0.265 0-0.52-0.105-0.707-0.293s-0.293-0.442-0.293-0.707v-2zM0 24c0-1.591 0.632-3.117 1.757-4.243s2.651-1.757 4.243-1.757 3.117 0.632 4.243 1.757c1.125 1.125 1.757 2.651 1.757 4.243s-0.632 3.117-1.757 4.243c-1.125 1.125-2.651 1.757-4.243 1.757s-3.117-0.632-4.243-1.757c-1.125-1.125-1.757-2.651-1.757-4.243zM14 21c0-0.265 0.105-0.52 0.293-0.707s0.442-0.293 0.707-0.293h14c0.265 0 0.52 0.105 0.707 0.293s0.293 0.442 0.293 0.707v2c0 0.265-0.105 0.52-0.293 0.707s-0.442 0.293-0.707 0.293h-14c-0.265 0-0.52-0.105-0.707-0.293s-0.293-0.442-0.293-0.707v-2zM14 11c0-0.265 0.105-0.52 0.293-0.707s0.442-0.293 0.707-0.293h10c0.265 0 0.52 0.105 0.707 0.293s0.293 0.442 0.293 0.707-0.105 0.52-0.293 0.707c-0.188 0.188-0.442 0.293-0.707 0.293h-10c-0.265 0-0.52-0.105-0.707-0.293s-0.293-0.442-0.293-0.707zM14 27c0-0.265 0.105-0.52 0.293-0.707s0.442-0.293 0.707-0.293h10c0.265 0 0.52 0.105 0.707 0.293s0.293 0.442 0.293 0.707-0.105 0.52-0.293 0.707c-0.188 0.188-0.442 0.293-0.707 0.293h-10c-0.265 0-0.52-0.105-0.707-0.293s-0.293-0.442-0.293-0.707zM6 2c-0.788 0-1.568 0.155-2.296 0.457s-1.389 0.744-1.947 1.301c-0.557 0.557-0.999 1.219-1.301 1.947s-0.457 1.508-0.457 2.296c0 0.788 0.155 1.568 0.457 2.296s0.744 1.389 1.301 1.947c0.557 0.557 1.219 0.999 1.947 1.301s1.508 0.457 2.296 0.457c1.591 0 3.117-0.632 4.243-1.757s1.757-2.651 1.757-4.243c0-1.591-0.632-3.117-1.757-4.243s-2.651-1.757-4.243-1.757zM6 11c-0.796 0-1.559-0.316-2.121-0.879s-0.879-1.326-0.879-2.121c0-0.796 0.316-1.559 0.879-2.121s1.326-0.879 2.121-0.879c0.796 0 1.559 0.316 2.121 0.879s0.879 1.326 0.879 2.121c0 0.796-0.316 1.559-0.879 2.121s-1.326 0.879-2.121 0.879z"></path>
</symbol>
<symbol id="icon-ph_shower" viewBox="0 0 32 32">
<path d="M8 29.5c0 0.297-0.088 0.587-0.253 0.833s-0.399 0.439-0.673 0.552-0.576 0.143-0.867 0.085c-0.291-0.058-0.558-0.201-0.768-0.41s-0.353-0.477-0.411-0.768c-0.058-0.291-0.028-0.593 0.085-0.867s0.306-0.508 0.552-0.673c0.247-0.165 0.537-0.253 0.833-0.253 0.398 0 0.779 0.158 1.061 0.439s0.439 0.663 0.439 1.061zM10.5 24c-0.297 0-0.587 0.088-0.833 0.253s-0.439 0.399-0.552 0.673c-0.114 0.274-0.143 0.576-0.085 0.867s0.201 0.558 0.411 0.768c0.21 0.21 0.477 0.353 0.768 0.41s0.592 0.028 0.867-0.085 0.508-0.306 0.673-0.552c0.165-0.247 0.253-0.537 0.253-0.833 0-0.398-0.158-0.779-0.439-1.061s-0.663-0.439-1.061-0.439zM2.5 24c-0.297 0-0.587 0.088-0.833 0.253s-0.439 0.399-0.552 0.673c-0.114 0.274-0.143 0.576-0.085 0.867s0.201 0.558 0.411 0.768c0.21 0.21 0.477 0.353 0.768 0.41s0.593 0.028 0.867-0.085c0.274-0.113 0.508-0.306 0.673-0.552s0.253-0.537 0.253-0.833c0-0.398-0.158-0.779-0.439-1.061s-0.663-0.439-1.061-0.439zM6.5 20c-0.297 0-0.587 0.088-0.833 0.253s-0.439 0.399-0.552 0.673c-0.114 0.274-0.143 0.576-0.085 0.867s0.201 0.558 0.411 0.768c0.21 0.21 0.477 0.353 0.768 0.41s0.593 0.028 0.867-0.085c0.274-0.113 0.508-0.306 0.673-0.552s0.253-0.537 0.253-0.833c0-0.398-0.158-0.779-0.439-1.061s-0.663-0.439-1.061-0.439zM32 5c0 0.265-0.105 0.52-0.293 0.707s-0.442 0.293-0.707 0.293h-3.586l-3.481 3.482-2.707 15.849c-0.061 0.362-0.22 0.701-0.461 0.978s-0.553 0.483-0.902 0.595c-0.35 0.112-0.724 0.125-1.080 0.039s-0.683-0.27-0.943-0.529l-12.25-12.25c-0.26-0.26-0.443-0.586-0.53-0.944s-0.073-0.732 0.039-1.082c0.112-0.35 0.319-0.662 0.597-0.903s0.617-0.399 0.98-0.46l15.842-2.709 3.775-3.775c0.093-0.093 0.203-0.166 0.325-0.217s0.252-0.076 0.383-0.076h4c0.265 0 0.52 0.105 0.707 0.293s0.293 0.442 0.293 0.707zM21.776 10.224l-14.776 2.526 12.25 12.25 2.526-14.776z"></path>
</symbol>
<symbol id="icon-wind" viewBox="0 0 32 32">
<path d="M25 4c-1.326 0-2.598 0.527-3.535 1.464s-1.465 2.209-1.465 3.536c0 0.265-0.105 0.52-0.293 0.707s-0.442 0.293-0.707 0.293c-0.265 0-0.52-0.105-0.707-0.293s-0.293-0.442-0.293-0.707c0-1.384 0.41-2.738 1.18-3.889s1.862-2.048 3.142-2.578c1.279-0.53 2.687-0.668 4.044-0.398s2.605 0.937 3.584 1.916c0.979 0.979 1.646 2.226 1.916 3.584s0.131 2.765-0.398 4.044c-0.53 1.279-1.427 2.372-2.578 3.142s-2.505 1.18-3.889 1.18h-24c-0.265 0-0.52-0.105-0.707-0.293s-0.293-0.442-0.293-0.707c0-0.265 0.105-0.52 0.293-0.707s0.442-0.293 0.707-0.293h24c1.326 0 2.598-0.527 3.535-1.464s1.465-2.209 1.465-3.536-0.527-2.598-1.465-3.536c-0.938-0.938-2.209-1.464-3.535-1.464zM11 6c-0.53 0-1.039 0.211-1.414 0.586s-0.586 0.884-0.586 1.414c0 0.265-0.105 0.52-0.293 0.707s-0.442 0.293-0.707 0.293c-0.265 0-0.52-0.105-0.707-0.293s-0.293-0.442-0.293-0.707c0-0.791 0.235-1.564 0.674-2.222s1.064-1.17 1.795-1.473c0.731-0.303 1.535-0.382 2.311-0.228s1.489 0.535 2.048 1.095 0.94 1.272 1.095 2.048c0.154 0.776 0.075 1.58-0.228 2.311s-0.815 1.356-1.473 1.795-1.431 0.674-2.222 0.674h-10c-0.265 0-0.52-0.105-0.707-0.293s-0.293-0.442-0.293-0.707c0-0.265 0.105-0.52 0.293-0.707s0.442-0.293 0.707-0.293h10c0.53 0 1.039-0.211 1.414-0.586s0.586-0.884 0.586-1.414c0-0.53-0.211-1.039-0.586-1.414s-0.884-0.586-1.414-0.586zM0 19c0-0.265 0.105-0.52 0.293-0.707s0.442-0.293 0.707-0.293h20.084c1.187 0 2.347 0.352 3.333 1.011s1.756 1.596 2.21 2.693c0.454 1.096 0.573 2.303 0.341 3.467s-0.803 2.233-1.642 3.072c-0.839 0.839-1.908 1.411-3.072 1.642s-2.37 0.113-3.467-0.341-2.033-1.223-2.693-2.21c-0.659-0.987-1.011-2.147-1.011-3.333 0-0.265 0.105-0.52 0.293-0.707s0.442-0.293 0.707-0.293c0.265 0 0.52 0.105 0.707 0.293s0.293 0.442 0.293 0.707c0 0.791 0.235 1.564 0.674 2.222s1.064 1.171 1.795 1.473c0.731 0.303 1.535 0.382 2.311 0.228s1.489-0.535 2.048-1.095 0.94-1.272 1.095-2.048c0.154-0.776 0.075-1.58-0.228-2.311s-0.815-1.356-1.473-1.795c-0.658-0.439-1.431-0.674-2.222-0.674h-20.084c-0.265 0-0.52-0.105-0.707-0.293s-0.293-0.442-0.293-0.707z"></path>
</symbol>
<symbol id="icon-diagram" viewBox="0 0 32 32">
<path d="M12 7c0-0.796 0.316-1.559 0.879-2.121s1.326-0.879 2.121-0.879h2c0.796 0 1.559 0.316 2.121 0.879s0.879 1.326 0.879 2.121v2c0 0.796-0.316 1.559-0.879 2.121s-1.326 0.879-2.121 0.879v2h11c0.265 0 0.52 0.105 0.707 0.293s0.293 0.442 0.293 0.707v2c0 0.265-0.105 0.52-0.293 0.707s-0.442 0.293-0.707 0.293c-0.265 0-0.52-0.105-0.707-0.293s-0.293-0.442-0.293-0.707v-1h-10v1c0 0.265-0.105 0.52-0.293 0.707s-0.442 0.293-0.707 0.293c-0.265 0-0.52-0.105-0.707-0.293s-0.293-0.442-0.293-0.707v-1h-10v1c0 0.265-0.105 0.52-0.293 0.707s-0.442 0.293-0.707 0.293c-0.265 0-0.52-0.105-0.707-0.293s-0.293-0.442-0.293-0.707v-2c0-0.265 0.105-0.52 0.293-0.707s0.442-0.293 0.707-0.293h11v-2c-0.796 0-1.559-0.316-2.121-0.879s-0.879-1.326-0.879-2.121v-2zM17 10c0.265 0 0.52-0.105 0.707-0.293s0.293-0.442 0.293-0.707v-2c0-0.265-0.105-0.52-0.293-0.707s-0.442-0.293-0.707-0.293h-2c-0.265 0-0.52 0.105-0.707 0.293s-0.293 0.442-0.293 0.707v2c0 0.265 0.105 0.52 0.293 0.707s0.442 0.293 0.707 0.293h2zM0 23c0-0.796 0.316-1.559 0.879-2.121s1.326-0.879 2.121-0.879h2c0.796 0 1.559 0.316 2.121 0.879s0.879 1.326 0.879 2.121v2c0 0.796-0.316 1.559-0.879 2.121s-1.326 0.879-2.121 0.879h-2c-0.796 0-1.559-0.316-2.121-0.879s-0.879-1.326-0.879-2.121v-2zM3 22c-0.265 0-0.52 0.105-0.707 0.293s-0.293 0.442-0.293 0.707v2c0 0.265 0.105 0.52 0.293 0.707s0.442 0.293 0.707 0.293h2c0.265 0 0.52-0.105 0.707-0.293s0.293-0.442 0.293-0.707v-2c0-0.265-0.105-0.52-0.293-0.707s-0.442-0.293-0.707-0.293h-2zM12 23c0-0.796 0.316-1.559 0.879-2.121s1.326-0.879 2.121-0.879h2c0.796 0 1.559 0.316 2.121 0.879s0.879 1.326 0.879 2.121v2c0 0.796-0.316 1.559-0.879 2.121s-1.326 0.879-2.121 0.879h-2c-0.796 0-1.559-0.316-2.121-0.879s-0.879-1.326-0.879-2.121v-2zM15 22c-0.265 0-0.52 0.105-0.707 0.293s-0.293 0.442-0.293 0.707v2c0 0.265 0.105 0.52 0.293 0.707s0.442 0.293 0.707 0.293h2c0.265 0 0.52-0.105 0.707-0.293s0.293-0.442 0.293-0.707v-2c0-0.265-0.105-0.52-0.293-0.707s-0.442-0.293-0.707-0.293h-2zM24 23c0-0.796 0.316-1.559 0.879-2.121s1.326-0.879 2.121-0.879h2c0.796 0 1.559 0.316 2.121 0.879s0.879 1.326 0.879 2.121v2c0 0.796-0.316 1.559-0.879 2.121s-1.326 0.879-2.121 0.879h-2c-0.796 0-1.559-0.316-2.121-0.879s-0.879-1.326-0.879-2.121v-2zM27 22c-0.265 0-0.52 0.105-0.707 0.293s-0.293 0.442-0.293 0.707v2c0 0.265 0.105 0.52 0.293 0.707s0.442 0.293 0.707 0.293h2c0.265 0 0.52-0.105 0.707-0.293s0.293-0.442 0.293-0.707v-2c0-0.265-0.105-0.52-0.293-0.707s-0.442-0.293-0.707-0.293h-2z"></path>
</symbol>
<symbol id="icon-star" viewBox="0 0 34 32">
<path d="M16.123 1.788c0.4-0.759 1.487-0.759 1.887 0l4.028 7.635c0.154 0.293 0.436 0.497 0.761 0.553l8.506 1.472c0.845 0.146 1.181 1.179 0.583 1.794l-6.017 6.19c-0.23 0.237-0.338 0.568-0.291 0.895l1.229 8.544c0.122 0.849-0.757 1.488-1.526 1.109l-7.747-3.809c-0.297-0.146-0.645-0.146-0.941 0l-7.747 3.809c-0.77 0.378-1.649-0.26-1.526-1.109l1.229-8.544c0.047-0.327-0.060-0.658-0.291-0.895l-6.016-6.19c-0.598-0.615-0.262-1.648 0.583-1.794l8.506-1.472c0.326-0.056 0.607-0.261 0.762-0.553l4.028-7.635z"></path>
</symbol>
<symbol id="icon-solar_fridge-outline" viewBox="0 0 32 32">
<path d="M23.667 9.333c0-0.265-0.105-0.52-0.293-0.707s-0.442-0.293-0.707-0.293c-0.265 0-0.52 0.105-0.707 0.293s-0.293 0.442-0.293 0.707v2.667c0 0.265 0.105 0.52 0.293 0.707s0.442 0.293 0.707 0.293c0.265 0 0.52-0.105 0.707-0.293s0.293-0.442 0.293-0.707v-2.667zM23.667 18.667c0-0.265-0.105-0.52-0.293-0.707s-0.442-0.293-0.707-0.293c-0.265 0-0.52 0.105-0.707 0.293s-0.293 0.442-0.293 0.707v2.667c0 0.265 0.105 0.52 0.293 0.707s0.442 0.293 0.707 0.293c0.265 0 0.52-0.105 0.707-0.293s0.293-0.442 0.293-0.707v-2.667z"></path>
<path d="M16.075 1.667h-0.149c-2.451 0-4.392 0-5.911 0.204-1.563 0.211-2.828 0.653-3.827 1.651-0.997 0.999-1.44 2.264-1.651 3.827-0.204 1.52-0.204 3.46-0.204 5.911v4.149c0 2.451 0 4.392 0.204 5.911 0.211 1.563 0.653 2.828 1.651 3.827 0.613 0.612 1.325 1.015 2.145 1.284v0.904c0 0.552 0.448 1 1 1h1.333c0.265 0 0.52-0.105 0.707-0.293s0.293-0.442 0.293-0.707v-0.395c1.209 0.061 2.62 0.061 4.259 0.061h0.149c1.64 0 3.049 0 4.259-0.061v0.395c0 0.552 0.448 1 1 1h1.333c0.265 0 0.52-0.105 0.707-0.293s0.293-0.442 0.293-0.707v-0.904c0.82-0.269 1.533-0.672 2.145-1.284 0.997-0.999 1.44-2.264 1.651-3.827 0.204-1.52 0.204-3.46 0.204-5.911v-4.148c0-2.451 0-4.392-0.204-5.911-0.211-1.563-0.653-2.828-1.651-3.827-0.999-0.997-2.264-1.44-3.827-1.651-1.52-0.204-3.46-0.204-5.911-0.204zM7.603 4.936c0.564-0.564 1.337-0.903 2.679-1.083 1.371-0.184 3.176-0.187 5.719-0.187s4.349 0.003 5.72 0.187c1.34 0.18 2.113 0.519 2.677 1.083s0.903 1.337 1.083 2.679c0.184 1.371 0.187 3.176 0.187 5.719v1h-19.333v-1c0-2.543 0.003-4.348 0.187-5.72 0.18-1.34 0.519-2.113 1.083-2.677zM6.333 16.333h19.333v1c0 2.543-0.003 4.349-0.187 5.72-0.18 1.34-0.519 2.113-1.083 2.677s-1.337 0.903-2.679 1.083c-1.371 0.184-3.176 0.187-5.719 0.187s-4.348-0.003-5.72-0.187c-1.34-0.18-2.113-0.519-2.677-1.083s-0.903-1.337-1.083-2.679c-0.184-1.369-0.187-3.176-0.187-5.719v-1z"></path>
</symbol>
</defs>
</svg>
